<svg xmlns="http://www.w3.org/2000/svg" xmlns:xlink="http://www.w3.org/1999/xlink" width="500" zoomAndPan="magnify" viewBox="0 0 375 374.999991" height="500" preserveAspectRatio="xMidYMid meet" version="1.0"><defs><clipPath id="197b103e62"><path d="M 132 22.527344 L 337 22.527344 L 337 188 L 132 188 Z M 132 22.527344 " clip-rule="nonzero"/></clipPath><clipPath id="4c0ede8bd4"><path d="M 148 187 L 352.527344 187 L 352.527344 352.527344 L 148 352.527344 Z M 148 187 " clip-rule="nonzero"/></clipPath><clipPath id="ac1fd8a485"><path d="M 22.527344 116 L 227 116 L 227 282 L 22.527344 282 Z M 22.527344 116 " clip-rule="nonzero"/></clipPath></defs><g clip-path="url(#197b103e62)"><path fill="#98d6fc" d="M 321.097656 22.527344 L 148.242188 22.527344 C 147.210938 22.527344 146.1875 22.628906 145.175781 22.828125 C 144.164062 23.03125 143.179688 23.328125 142.226562 23.722656 C 141.273438 24.117188 140.367188 24.601562 139.511719 25.175781 C 138.652344 25.75 137.859375 26.398438 137.128906 27.128906 C 136.398438 27.859375 135.75 28.652344 135.175781 29.511719 C 134.601562 30.367188 134.117188 31.273438 133.722656 32.226562 C 133.328125 33.179688 133.03125 34.164062 132.828125 35.175781 C 132.628906 36.1875 132.527344 37.210938 132.527344 38.242188 L 132.527344 140.382812 C 132.527344 141.414062 132.628906 142.4375 132.828125 143.449219 C 133.03125 144.460938 133.328125 145.445312 133.722656 146.398438 C 134.117188 147.351562 134.601562 148.257812 135.175781 149.113281 C 135.75 149.972656 136.398438 150.765625 137.128906 151.496094 C 137.859375 152.226562 138.652344 152.875 139.511719 153.449219 C 140.367188 154.023438 141.273438 154.507812 142.226562 154.902344 C 143.179688 155.296875 144.164062 155.59375 145.175781 155.796875 C 146.1875 155.996094 147.210938 156.097656 148.242188 156.097656 L 205.675781 156.097656 L 233.804688 187.527344 L 261.855469 156.097656 L 321.097656 156.097656 C 322.128906 156.097656 323.152344 155.996094 324.164062 155.796875 C 325.175781 155.59375 326.160156 155.296875 327.113281 154.902344 C 328.066406 154.507812 328.96875 154.023438 329.828125 153.449219 C 330.6875 152.875 331.480469 152.226562 332.210938 151.496094 C 332.9375 150.765625 333.589844 149.972656 334.164062 149.113281 C 334.738281 148.257812 335.222656 147.351562 335.617188 146.398438 C 336.011719 145.445312 336.308594 144.460938 336.511719 143.449219 C 336.710938 142.4375 336.8125 141.414062 336.8125 140.382812 L 336.8125 38.242188 C 336.8125 37.210938 336.710938 36.1875 336.511719 35.175781 C 336.308594 34.164062 336.011719 33.179688 335.617188 32.226562 C 335.222656 31.273438 334.738281 30.367188 334.164062 29.511719 C 333.589844 28.652344 332.9375 27.859375 332.210938 27.128906 C 331.480469 26.398438 330.6875 25.75 329.828125 25.175781 C 328.96875 24.601562 328.066406 24.117188 327.113281 23.722656 C 326.160156 23.328125 325.175781 23.03125 324.164062 22.828125 C 323.152344 22.628906 322.128906 22.527344 321.097656 22.527344 Z M 321.097656 22.527344 " fill-opacity="1" fill-rule="nonzero"/></g><g clip-path="url(#4c0ede8bd4)"><path fill="#446c9e" d="M 336.8125 187.527344 L 163.957031 187.527344 C 162.921875 187.527344 161.902344 187.628906 160.890625 187.828125 C 159.878906 188.03125 158.894531 188.328125 157.941406 188.722656 C 156.988281 189.117188 156.082031 189.601562 155.226562 190.175781 C 154.367188 190.75 153.574219 191.398438 152.84375 192.128906 C 152.113281 192.859375 151.460938 193.652344 150.890625 194.511719 C 150.316406 195.367188 149.832031 196.273438 149.4375 197.226562 C 149.042969 198.179688 148.746094 199.164062 148.542969 200.175781 C 148.339844 201.1875 148.242188 202.210938 148.242188 203.242188 L 148.242188 305.382812 C 148.242188 306.414062 148.339844 307.4375 148.542969 308.449219 C 148.746094 309.460938 149.042969 310.445312 149.4375 311.398438 C 149.832031 312.351562 150.316406 313.257812 150.890625 314.113281 C 151.460938 314.972656 152.113281 315.765625 152.84375 316.496094 C 153.574219 317.226562 154.367188 317.875 155.226562 318.449219 C 156.082031 319.023438 156.988281 319.507812 157.941406 319.902344 C 158.894531 320.296875 159.878906 320.59375 160.890625 320.796875 C 161.902344 320.996094 162.921875 321.097656 163.957031 321.097656 L 221.390625 321.097656 L 249.519531 352.527344 L 277.570312 321.097656 L 336.8125 321.097656 C 337.84375 321.097656 338.867188 320.996094 339.878906 320.796875 C 340.890625 320.59375 341.871094 320.296875 342.824219 319.902344 C 343.777344 319.507812 344.683594 319.023438 345.542969 318.449219 C 346.402344 317.875 347.195312 317.226562 347.925781 316.496094 C 348.652344 315.765625 349.304688 314.972656 349.878906 314.113281 C 350.453125 313.257812 350.9375 312.351562 351.332031 311.398438 C 351.726562 310.445312 352.023438 309.460938 352.226562 308.449219 C 352.425781 307.4375 352.527344 306.414062 352.527344 305.382812 L 352.527344 203.242188 C 352.527344 202.210938 352.425781 201.1875 352.226562 200.175781 C 352.023438 199.164062 351.726562 198.179688 351.332031 197.226562 C 350.9375 196.273438 350.453125 195.367188 349.878906 194.511719 C 349.304688 193.652344 348.652344 192.859375 347.925781 192.128906 C 347.195312 191.398438 346.402344 190.75 345.542969 190.175781 C 344.683594 189.601562 343.777344 189.117188 342.824219 188.722656 C 341.871094 188.328125 340.890625 188.03125 339.878906 187.828125 C 338.867188 187.628906 337.84375 187.527344 336.8125 187.527344 Z M 336.8125 187.527344 " fill-opacity="1" fill-rule="nonzero"/></g><path fill="#fbe639" d="M 297.527344 258.242188 C 297.527344 259.785156 297.449219 261.324219 297.300781 262.863281 C 297.148438 264.398438 296.921875 265.921875 296.621094 267.4375 C 296.320312 268.953125 295.945312 270.449219 295.496094 271.925781 C 295.046875 273.402344 294.527344 274.855469 293.9375 276.28125 C 293.347656 277.707031 292.6875 279.101562 291.960938 280.464844 C 291.230469 281.824219 290.4375 283.148438 289.582031 284.433594 C 288.722656 285.714844 287.804688 286.953125 286.824219 288.148438 C 285.847656 289.339844 284.8125 290.484375 283.71875 291.574219 C 282.628906 292.667969 281.484375 293.703125 280.289062 294.683594 C 279.097656 295.664062 277.859375 296.582031 276.574219 297.4375 C 275.292969 298.296875 273.96875 299.089844 272.605469 299.816406 C 271.246094 300.546875 269.851562 301.203125 268.425781 301.796875 C 267 302.386719 265.546875 302.90625 264.070312 303.355469 C 262.589844 303.800781 261.09375 304.175781 259.582031 304.476562 C 258.066406 304.777344 256.542969 305.003906 255.003906 305.15625 C 253.46875 305.308594 251.929688 305.382812 250.382812 305.382812 C 248.839844 305.382812 247.300781 305.308594 245.761719 305.15625 C 244.226562 305.003906 242.699219 304.777344 241.1875 304.476562 C 239.671875 304.175781 238.175781 303.800781 236.699219 303.355469 C 235.222656 302.90625 233.769531 302.386719 232.34375 301.796875 C 230.917969 301.203125 229.523438 300.546875 228.160156 299.816406 C 226.800781 299.089844 225.476562 298.296875 224.191406 297.4375 C 222.910156 296.582031 221.671875 295.664062 220.476562 294.683594 C 219.28125 293.703125 218.140625 292.667969 217.046875 291.574219 C 215.957031 290.484375 214.921875 289.339844 213.941406 288.148438 C 212.960938 286.953125 212.042969 285.714844 211.1875 284.433594 C 210.328125 283.148438 209.535156 281.824219 208.808594 280.464844 C 208.078125 279.101562 207.421875 277.707031 206.828125 276.28125 C 206.238281 274.855469 205.71875 273.402344 205.269531 271.925781 C 204.824219 270.449219 204.449219 268.953125 204.148438 267.4375 C 203.84375 265.921875 203.621094 264.398438 203.46875 262.863281 C 203.316406 261.324219 203.242188 259.785156 203.242188 258.242188 C 203.242188 256.695312 203.316406 255.15625 203.46875 253.621094 C 203.621094 252.082031 203.84375 250.558594 204.148438 249.042969 C 204.449219 247.53125 204.824219 246.035156 205.269531 244.554688 C 205.71875 243.078125 206.238281 241.625 206.828125 240.199219 C 207.421875 238.773438 208.078125 237.378906 208.808594 236.019531 C 209.535156 234.65625 210.328125 233.332031 211.1875 232.050781 C 212.042969 230.765625 212.960938 229.527344 213.941406 228.332031 C 214.921875 227.140625 215.957031 225.996094 217.046875 224.90625 C 218.140625 223.8125 219.28125 222.777344 220.476562 221.800781 C 221.671875 220.820312 222.910156 219.902344 224.191406 219.042969 C 225.476562 218.183594 226.800781 217.390625 228.160156 216.664062 C 229.523438 215.9375 230.917969 215.277344 232.34375 214.6875 C 233.769531 214.097656 235.222656 213.578125 236.699219 213.128906 C 238.175781 212.679688 239.671875 212.304688 241.1875 212.003906 C 242.699219 211.703125 244.226562 211.476562 245.761719 211.324219 C 247.300781 211.171875 248.839844 211.097656 250.382812 211.097656 C 251.929688 211.097656 253.46875 211.171875 255.003906 211.324219 C 256.542969 211.476562 258.066406 211.703125 259.582031 212.003906 C 261.09375 212.304688 262.589844 212.679688 264.070312 213.128906 C 265.546875 213.578125 267 214.097656 268.425781 214.6875 C 269.851562 215.277344 271.246094 215.9375 272.605469 216.664062 C 273.96875 217.390625 275.292969 218.183594 276.574219 219.042969 C 277.859375 219.902344 279.097656 220.820312 280.289062 221.800781 C 281.484375 222.777344 282.628906 223.8125 283.71875 224.90625 C 284.8125 225.996094 285.847656 227.140625 286.824219 228.332031 C 287.804688 229.527344 288.722656 230.765625 289.582031 232.050781 C 290.4375 233.332031 291.230469 234.65625 291.960938 236.019531 C 292.6875 237.378906 293.347656 238.773438 293.9375 240.199219 C 294.527344 241.625 295.046875 243.078125 295.496094 244.554688 C 295.945312 246.035156 296.320312 247.53125 296.621094 249.042969 C 296.921875 250.558594 297.148438 252.082031 297.300781 253.621094 C 297.449219 255.15625 297.527344 256.695312 297.527344 258.242188 Z M 297.527344 258.242188 " fill-opacity="1" fill-rule="nonzero"/><path fill="#446c9e" d="M 250.382812 285.742188 C 249.613281 285.742188 248.839844 285.703125 248.074219 285.628906 C 247.304688 285.550781 246.542969 285.4375 245.785156 285.289062 C 245.027344 285.136719 244.28125 284.949219 243.542969 284.726562 C 242.800781 284.5 242.078125 284.242188 241.363281 283.945312 C 240.648438 283.652344 239.953125 283.320312 239.273438 282.957031 C 238.589844 282.59375 237.929688 282.199219 237.289062 281.769531 C 236.644531 281.339844 236.027344 280.878906 235.429688 280.390625 C 234.832031 279.902344 234.261719 279.382812 233.714844 278.835938 C 233.171875 278.292969 232.652344 277.71875 232.164062 277.121094 C 231.671875 276.527344 231.214844 275.90625 230.785156 275.265625 C 230.355469 274.625 229.960938 273.960938 229.59375 273.28125 C 229.230469 272.601562 228.902344 271.902344 228.605469 271.191406 C 228.3125 270.476562 228.050781 269.75 227.828125 269.011719 C 227.601562 268.273438 227.414062 267.523438 227.265625 266.769531 C 227.113281 266.011719 227 265.25 226.925781 264.480469 C 226.851562 263.710938 226.8125 262.941406 226.8125 262.167969 C 226.8125 261.652344 226.863281 261.144531 226.964844 260.636719 C 227.0625 260.128906 227.214844 259.640625 227.410156 259.164062 C 227.609375 258.6875 227.851562 258.234375 228.136719 257.804688 C 228.421875 257.375 228.75 256.976562 229.113281 256.613281 C 229.476562 256.25 229.875 255.921875 230.304688 255.636719 C 230.734375 255.351562 231.1875 255.109375 231.664062 254.910156 C 232.140625 254.714844 232.628906 254.5625 233.136719 254.464844 C 233.644531 254.363281 234.152344 254.3125 234.667969 254.3125 C 235.183594 254.3125 235.695312 254.363281 236.203125 254.464844 C 236.707031 254.5625 237.199219 254.714844 237.675781 254.910156 C 238.152344 255.109375 238.605469 255.351562 239.035156 255.636719 C 239.464844 255.921875 239.859375 256.25 240.226562 256.613281 C 240.589844 256.976562 240.914062 257.375 241.203125 257.804688 C 241.488281 258.234375 241.730469 258.6875 241.929688 259.164062 C 242.125 259.640625 242.273438 260.128906 242.375 260.636719 C 242.476562 261.144531 242.527344 261.652344 242.527344 262.167969 C 242.527344 262.683594 242.578125 263.195312 242.675781 263.703125 C 242.777344 264.207031 242.925781 264.699219 243.125 265.175781 C 243.320312 265.652344 243.5625 266.105469 243.851562 266.535156 C 244.136719 266.964844 244.464844 267.359375 244.828125 267.726562 C 245.191406 268.089844 245.589844 268.414062 246.019531 268.703125 C 246.449219 268.988281 246.898438 269.230469 247.378906 269.429688 C 247.855469 269.625 248.34375 269.773438 248.851562 269.875 C 249.355469 269.976562 249.867188 270.027344 250.382812 270.027344 C 250.898438 270.027344 251.410156 269.976562 251.917969 269.875 C 252.421875 269.773438 252.914062 269.625 253.390625 269.429688 C 253.867188 269.230469 254.320312 268.988281 254.75 268.703125 C 255.179688 268.414062 255.574219 268.089844 255.941406 267.726562 C 256.304688 267.359375 256.628906 266.964844 256.917969 266.535156 C 257.203125 266.105469 257.445312 265.652344 257.644531 265.175781 C 257.839844 264.699219 257.988281 264.207031 258.089844 263.703125 C 258.191406 263.195312 258.242188 262.683594 258.242188 262.167969 C 258.242188 261.652344 258.292969 261.144531 258.390625 260.636719 C 258.492188 260.128906 258.640625 259.640625 258.839844 259.164062 C 259.035156 258.6875 259.277344 258.234375 259.566406 257.804688 C 259.851562 257.375 260.175781 256.976562 260.542969 256.613281 C 260.90625 256.25 261.304688 255.921875 261.734375 255.636719 C 262.160156 255.351562 262.613281 255.109375 263.089844 254.910156 C 263.566406 254.714844 264.058594 254.5625 264.566406 254.464844 C 265.070312 254.363281 265.582031 254.3125 266.097656 254.3125 C 266.613281 254.3125 267.125 254.363281 267.632812 254.464844 C 268.136719 254.5625 268.628906 254.714844 269.105469 254.910156 C 269.582031 255.109375 270.035156 255.351562 270.464844 255.636719 C 270.890625 255.921875 271.289062 256.25 271.652344 256.613281 C 272.019531 256.976562 272.34375 257.375 272.632812 257.804688 C 272.917969 258.234375 273.160156 258.6875 273.355469 259.164062 C 273.554688 259.640625 273.703125 260.128906 273.804688 260.636719 C 273.90625 261.144531 273.957031 261.652344 273.957031 262.167969 C 273.957031 262.941406 273.917969 263.710938 273.839844 264.480469 C 273.765625 265.25 273.652344 266.011719 273.503906 266.769531 C 273.351562 267.523438 273.164062 268.273438 272.941406 269.011719 C 272.714844 269.75 272.457031 270.476562 272.160156 271.191406 C 271.867188 271.902344 271.535156 272.601562 271.171875 273.28125 C 270.808594 273.960938 270.410156 274.625 269.984375 275.265625 C 269.554688 275.90625 269.09375 276.527344 268.605469 277.121094 C 268.113281 277.71875 267.597656 278.292969 267.050781 278.835938 C 266.503906 279.382812 265.933594 279.902344 265.335938 280.390625 C 264.742188 280.878906 264.121094 281.339844 263.480469 281.769531 C 262.835938 282.199219 262.175781 282.59375 261.496094 282.957031 C 260.816406 283.320312 260.117188 283.652344 259.402344 283.945312 C 258.691406 284.242188 257.964844 284.5 257.226562 284.726562 C 256.488281 284.949219 255.738281 285.136719 254.980469 285.289062 C 254.226562 285.4375 253.460938 285.550781 252.695312 285.628906 C 251.925781 285.703125 251.15625 285.742188 250.382812 285.742188 Z M 250.382812 285.742188 " fill-opacity="1" fill-rule="nonzero"/><g clip-path="url(#ac1fd8a485)"><path fill="#f47f8f" d="M 211.097656 116.8125 L 38.242188 116.8125 C 37.210938 116.8125 36.1875 116.914062 35.175781 117.113281 C 34.164062 117.316406 33.179688 117.613281 32.226562 118.007812 C 31.273438 118.402344 30.367188 118.886719 29.511719 119.460938 C 28.652344 120.035156 27.859375 120.683594 27.128906 121.414062 C 26.398438 122.144531 25.75 122.9375 25.175781 123.796875 C 24.601562 124.652344 24.117188 125.558594 23.722656 126.511719 C 23.328125 127.464844 23.03125 128.449219 22.828125 129.460938 C 22.628906 130.472656 22.527344 131.496094 22.527344 132.527344 L 22.527344 234.667969 C 22.527344 235.703125 22.628906 236.722656 22.828125 237.734375 C 23.03125 238.746094 23.328125 239.730469 23.722656 240.683594 C 24.117188 241.636719 24.601562 242.542969 25.175781 243.398438 C 25.75 244.257812 26.398438 245.050781 27.128906 245.78125 C 27.859375 246.511719 28.652344 247.164062 29.511719 247.734375 C 30.367188 248.308594 31.273438 248.792969 32.226562 249.1875 C 33.179688 249.582031 34.164062 249.878906 35.175781 250.082031 C 36.1875 250.28125 37.210938 250.382812 38.242188 250.382812 L 95.675781 250.382812 L 123.804688 281.8125 L 151.855469 250.382812 L 211.097656 250.382812 C 212.128906 250.382812 213.152344 250.28125 214.164062 250.082031 C 215.175781 249.878906 216.160156 249.582031 217.113281 249.1875 C 218.066406 248.792969 218.96875 248.308594 219.828125 247.734375 C 220.6875 247.164062 221.480469 246.511719 222.210938 245.78125 C 222.9375 245.050781 223.589844 244.257812 224.164062 243.398438 C 224.738281 242.542969 225.222656 241.636719 225.617188 240.683594 C 226.011719 239.730469 226.308594 238.746094 226.511719 237.734375 C 226.710938 236.722656 226.8125 235.703125 226.8125 234.667969 L 226.8125 132.527344 C 226.8125 131.496094 226.710938 130.472656 226.511719 129.460938 C 226.308594 128.449219 226.011719 127.464844 225.617188 126.511719 C 225.222656 125.558594 224.738281 124.652344 224.164062 123.796875 C 223.589844 122.9375 222.9375 122.144531 222.210938 121.414062 C 221.480469 120.683594 220.6875 120.035156 219.828125 119.460938 C 218.96875 118.886719 218.066406 118.402344 217.113281 118.007812 C 216.160156 117.613281 215.175781 117.316406 214.164062 117.113281 C 213.152344 116.914062 212.128906 116.8125 211.097656 116.8125 Z M 211.097656 116.8125 " fill-opacity="1" fill-rule="nonzero"/></g><path fill="#446c9e" d="M 273.957031 61.8125 L 171.8125 61.8125 C 171.296875 61.8125 170.785156 61.761719 170.28125 61.660156 C 169.773438 61.5625 169.28125 61.410156 168.804688 61.214844 C 168.328125 61.015625 167.875 60.773438 167.445312 60.488281 C 167.019531 60.203125 166.621094 59.875 166.257812 59.511719 C 165.890625 59.144531 165.566406 58.75 165.28125 58.320312 C 164.992188 57.890625 164.75 57.4375 164.554688 56.960938 C 164.355469 56.484375 164.207031 55.992188 164.105469 55.488281 C 164.003906 54.980469 163.957031 54.472656 163.957031 53.957031 C 163.957031 53.4375 164.003906 52.929688 164.105469 52.421875 C 164.207031 51.917969 164.355469 51.425781 164.554688 50.949219 C 164.75 50.472656 164.992188 50.019531 165.28125 49.589844 C 165.566406 49.160156 165.890625 48.765625 166.257812 48.398438 C 166.621094 48.035156 167.019531 47.707031 167.445312 47.421875 C 167.875 47.136719 168.328125 46.894531 168.804688 46.695312 C 169.28125 46.5 169.773438 46.351562 170.28125 46.25 C 170.785156 46.148438 171.296875 46.097656 171.8125 46.097656 L 273.957031 46.097656 C 274.472656 46.097656 274.980469 46.148438 275.488281 46.25 C 275.992188 46.351562 276.484375 46.5 276.960938 46.695312 C 277.4375 46.894531 277.890625 47.136719 278.320312 47.421875 C 278.75 47.707031 279.144531 48.035156 279.511719 48.398438 C 279.875 48.765625 280.203125 49.160156 280.488281 49.589844 C 280.773438 50.019531 281.015625 50.472656 281.214844 50.949219 C 281.410156 51.425781 281.5625 51.917969 281.660156 52.421875 C 281.761719 52.929688 281.8125 53.4375 281.8125 53.957031 C 281.8125 54.472656 281.761719 54.980469 281.660156 55.488281 C 281.5625 55.992188 281.410156 56.484375 281.214844 56.960938 C 281.015625 57.4375 280.773438 57.890625 280.488281 58.320312 C 280.203125 58.75 279.875 59.144531 279.511719 59.511719 C 279.144531 59.875 278.75 60.203125 278.320312 60.488281 C 277.890625 60.773438 277.4375 61.015625 276.960938 61.214844 C 276.484375 61.410156 275.992188 61.5625 275.488281 61.660156 C 274.980469 61.761719 274.472656 61.8125 273.957031 61.8125 Z M 273.957031 61.8125 " fill-opacity="1" fill-rule="nonzero"/><path fill="#446c9e" d="M 234.667969 93.242188 L 171.8125 93.242188 C 171.296875 93.242188 170.785156 93.191406 170.28125 93.089844 C 169.773438 92.988281 169.28125 92.839844 168.804688 92.644531 C 168.328125 92.445312 167.875 92.203125 167.445312 91.917969 C 167.019531 91.628906 166.621094 91.304688 166.257812 90.941406 C 165.890625 90.574219 165.566406 90.179688 165.28125 89.75 C 164.992188 89.320312 164.75 88.867188 164.554688 88.390625 C 164.355469 87.914062 164.207031 87.421875 164.105469 86.917969 C 164.003906 86.410156 163.957031 85.898438 163.957031 85.382812 C 163.957031 84.867188 164.003906 84.355469 164.105469 83.851562 C 164.207031 83.34375 164.355469 82.855469 164.554688 82.378906 C 164.75 81.898438 164.992188 81.449219 165.28125 81.019531 C 165.566406 80.589844 165.890625 80.191406 166.257812 79.828125 C 166.621094 79.464844 167.019531 79.136719 167.445312 78.851562 C 167.875 78.5625 168.328125 78.320312 168.804688 78.125 C 169.28125 77.925781 169.773438 77.777344 170.28125 77.675781 C 170.785156 77.578125 171.296875 77.527344 171.8125 77.527344 L 234.667969 77.527344 C 235.183594 77.527344 235.695312 77.578125 236.203125 77.675781 C 236.707031 77.777344 237.199219 77.925781 237.675781 78.125 C 238.152344 78.320312 238.605469 78.5625 239.035156 78.851562 C 239.464844 79.136719 239.859375 79.464844 240.226562 79.828125 C 240.589844 80.191406 240.914062 80.589844 241.203125 81.019531 C 241.488281 81.449219 241.730469 81.898438 241.929688 82.378906 C 242.125 82.855469 242.273438 83.34375 242.375 83.851562 C 242.476562 84.355469 242.527344 84.867188 242.527344 85.382812 C 242.527344 85.898438 242.476562 86.410156 242.375 86.917969 C 242.273438 87.421875 242.125 87.914062 241.929688 88.390625 C 241.730469 88.867188 241.488281 89.320312 241.203125 89.75 C 240.914062 90.179688 240.589844 90.574219 240.226562 90.941406 C 239.859375 91.304688 239.464844 91.628906 239.035156 91.917969 C 238.605469 92.203125 238.152344 92.445312 237.675781 92.644531 C 237.199219 92.839844 236.707031 92.988281 236.203125 93.089844 C 235.695312 93.191406 235.183594 93.242188 234.667969 93.242188 Z M 234.667969 93.242188 " fill-opacity="1" fill-rule="nonzero"/><path fill="#f8f6f7" d="M 124.667969 232.15625 L 91.667969 199.234375 C 58.828125 166.390625 91.667969 133.46875 124.589844 166.234375 C 157.589844 133.234375 190.511719 166.234375 157.511719 199.234375 Z M 124.667969 232.15625 " fill-opacity="1" fill-rule="nonzero"/></svg>