<svg xmlns="http://www.w3.org/2000/svg" xmlns:xlink="http://www.w3.org/1999/xlink" width="500" zoomAndPan="magnify" viewBox="0 0 375 374.999991" height="500" preserveAspectRatio="xMidYMid meet" version="1.0"><path fill="#c5ebd9" d="M 167.058594 232.898438 C 167.054688 232.898438 167.046875 232.898438 167.042969 232.898438 C 167.042969 232.90625 167.042969 232.914062 167.046875 232.921875 C 167.046875 232.914062 167.054688 232.90625 167.058594 232.898438 " fill-opacity="1" fill-rule="nonzero"/><path fill="#c5ebd9" d="M 158.472656 226.746094 C 158.480469 226.742188 158.484375 226.734375 158.488281 226.726562 C 158.484375 226.726562 158.480469 226.722656 158.472656 226.71875 C 158.472656 226.734375 158.472656 226.742188 158.472656 226.746094 " fill-opacity="1" fill-rule="nonzero"/><path fill="#c5ebd9" d="M 239.617188 192.984375 L 239.925781 186.300781 L 267.546875 186.855469 L 267.875 193.507812 Z M 340.511719 140.820312 C 331.984375 139.21875 322.53125 137.488281 315.875 135.949219 C 315.871094 135.953125 315.871094 135.957031 315.867188 135.960938 C 301.78125 150.355469 285.171875 199.453125 281.386719 219.925781 C 273.523438 202.367188 264.980469 150.964844 270.894531 132.496094 C 257.710938 133.621094 246.664062 135.929688 244.960938 136.757812 C 244.902344 136.785156 244.832031 136.828125 244.757812 136.878906 C 230.132812 142.289062 210.84375 175.972656 200.070312 196.824219 C 180.546875 198.796875 156.203125 207.96875 140.242188 214.792969 C 140.359375 215.023438 140.464844 215.265625 140.558594 215.527344 C 142.304688 220.347656 143.703125 229.019531 135.167969 236.105469 C 135.21875 236.304688 135.261719 236.511719 135.300781 236.71875 C 136.597656 236.761719 137.921875 236.859375 139.261719 237 C 141.054688 235.222656 143.132812 233.582031 145.515625 232.320312 C 145.832031 232.152344 146.136719 232.003906 146.429688 231.863281 C 145.910156 230.644531 145.640625 229.445312 145.582031 228.339844 C 145.015625 227.136719 143.777344 224.507812 143.078125 222.890625 C 142.566406 221.707031 142.902344 221.050781 143.445312 220.746094 C 144.121094 220.367188 145.019531 220.664062 145.546875 221.339844 C 146.019531 221.949219 146.542969 222.832031 147.050781 223.804688 C 147.175781 223.699219 147.3125 223.605469 147.453125 223.527344 C 147.226562 222.007812 146.84375 219.386719 146.648438 217.726562 C 146.492188 216.378906 147.046875 215.804688 147.703125 215.65625 C 148.519531 215.46875 149.355469 216.027344 149.6875 216.867188 C 150.21875 218.214844 150.632812 220.503906 150.902344 222.53125 C 151.03125 222.503906 151.160156 222.476562 151.292969 222.449219 C 151.191406 220.894531 151.046875 218.453125 150.992188 216.878906 C 150.945312 215.523438 151.539062 215.003906 152.195312 214.914062 C 153.011719 214.800781 153.785156 215.433594 154.042969 216.300781 C 154.457031 217.6875 154.675781 220.003906 154.78125 222.050781 C 155.003906 222.054688 155.226562 222.066406 155.433594 222.089844 C 155.457031 220.558594 155.503906 218.527344 155.566406 217.15625 C 155.628906 215.800781 156.257812 215.332031 156.917969 215.292969 C 157.746094 215.242188 158.464844 215.933594 158.652344 216.820312 C 159.207031 219.421875 158.871094 225.101562 158.683594 226.445312 C 159.546875 225.261719 160.640625 224.484375 162.3125 224.90625 C 162.488281 224.949219 162.613281 225.109375 162.59375 225.292969 C 162.515625 226.132812 162.011719 228.714844 159 233.109375 C 158.421875 233.957031 157.636719 234.632812 156.71875 235.0625 C 156.6875 235.179688 156.652344 235.292969 156.609375 235.394531 C 156.347656 236.019531 155.328125 238 153.875 240.585938 C 153.890625 240.589844 153.910156 240.597656 153.925781 240.605469 C 155.335938 240.488281 156.765625 240.375 158.21875 240.253906 C 159.027344 240.1875 159.828125 240.109375 160.628906 240.035156 C 161.3125 239.621094 162.015625 239.234375 162.75 238.886719 C 162.925781 238.800781 163.089844 238.734375 163.253906 238.65625 C 163.238281 238.527344 163.210938 238.402344 163.207031 238.269531 C 162.867188 232.78125 163.796875 230.230469 164.171875 229.445312 C 164.253906 229.273438 164.445312 229.195312 164.628906 229.25 C 166.328125 229.761719 166.882812 231.039062 167.019531 232.539062 C 167.566406 231.253906 170.285156 226.050781 172.152344 224.042969 C 172.785156 223.363281 173.792969 223.132812 174.496094 223.613281 C 175.0625 224 175.371094 224.753906 174.707031 225.984375 C 174.035156 227.230469 172.996094 229.046875 172.207031 230.417969 C 172.402344 230.507812 172.601562 230.613281 172.804688 230.730469 C 173.980469 228.976562 175.40625 227.042969 176.507812 226.035156 C 177.195312 225.40625 178.214844 225.253906 178.878906 225.789062 C 179.410156 226.222656 179.65625 226.992188 178.902344 228.171875 C 178.015625 229.535156 176.59375 231.617188 175.679688 232.941406 C 175.78125 233.03125 175.878906 233.125 175.976562 233.21875 C 177.296875 231.570312 178.875 229.761719 180.058594 228.859375 C 180.800781 228.289062 181.832031 228.234375 182.457031 228.835938 C 182.957031 229.316406 183.144531 230.117188 182.292969 231.226562 C 181.769531 231.902344 181.082031 232.765625 180.398438 233.609375 C 183.515625 233.015625 186.722656 233.25 189.914062 234.617188 C 204.621094 230.675781 214.277344 226.296875 214.277344 226.296875 C 214.277344 226.296875 214.269531 226.246094 214.261719 226.152344 C 220.835938 222.328125 230.335938 211.214844 238.335938 200.839844 C 239.722656 211.804688 241.902344 231.84375 243.035156 247.1875 L 259.695312 257.914062 C 271.492188 253.523438 284.6875 249.410156 296.433594 247.617188 C 299.160156 232.265625 303.378906 208.316406 306.207031 191.316406 C 309.65625 170.605469 325.632812 146.933594 341.941406 150.4375 C 358.25 153.9375 354.023438 173.863281 343.066406 225.234375 C 332.105469 276.597656 312.320312 280 312.320312 280 C 312.320312 280 307.78125 281.832031 300.246094 284.011719 L 304.433594 286.710938 C 309.53125 289.992188 310.457031 296.066406 308.167969 300.613281 C 330.691406 299.390625 345.019531 288.863281 346.746094 287.53125 C 346.746094 287.550781 346.746094 287.566406 346.746094 287.566406 C 346.75 287.550781 346.753906 287.539062 346.753906 287.527344 C 346.867188 287.441406 346.921875 287.390625 346.921875 287.390625 L 347.015625 285.214844 C 349.960938 259.296875 356.804688 196.945312 358.480469 170.523438 C 359.253906 158.417969 352.417969 143.058594 340.511719 140.820312 " fill-opacity="1" fill-rule="nonzero"/><path fill="#9fddbe" d="M 267.550781 186.855469 L 239.929688 186.296875 L 239.621094 192.980469 L 267.875 193.507812 L 267.550781 186.855469 " fill-opacity="1" fill-rule="nonzero"/><path fill="#5954ae" d="M 211.984375 239.539062 L 199.328125 241.195312 C 202.027344 243.8125 204.285156 246.722656 206.148438 249.648438 C 207.140625 251.207031 208.011719 252.765625 208.792969 254.28125 C 211.394531 249.019531 215.15625 245.679688 216.632812 245.441406 C 218.714844 245.097656 221.703125 248.4375 224.199219 253.636719 C 225.613281 256.578125 220.359375 264.824219 217.699219 268.359375 C 217.371094 268.726562 217.03125 269.058594 216.6875 269.378906 C 217.351562 269.878906 218.019531 270.367188 218.671875 270.832031 C 219.386719 271.339844 220.035156 271.945312 220.617188 272.605469 C 221.492188 272.160156 222.203125 271.9375 222.65625 271.953125 C 223.316406 271.980469 223.996094 272.375 224.652344 273.074219 L 225.476562 272.675781 C 225.476562 272.675781 240.789062 264.945312 259.695312 257.914062 L 243.035156 247.1875 L 241.429688 246.15625 C 232.703125 240.539062 222.273438 238.191406 211.984375 239.539062 " fill-opacity="1" fill-rule="nonzero"/><path fill="#5954ae" d="M 195.46875 296.058594 C 195.351562 295.867188 195.242188 295.675781 195.136719 295.484375 L 186.917969 295.042969 C 186.335938 295.300781 185.753906 295.53125 185.171875 295.738281 C 188.484375 295.59375 192.511719 295.820312 195.46875 296.058594 " fill-opacity="1" fill-rule="nonzero"/><path fill="#5954ae" d="M 304.4375 286.710938 L 300.25 284.011719 C 290.265625 286.902344 275.027344 290.410156 258.101562 291.085938 C 243.167969 291.679688 230.519531 292.101562 222.984375 292.335938 C 220.15625 296.882812 214.476562 300.828125 203.234375 300.589844 L 203.429688 300.808594 L 183.527344 300.742188 C 182.09375 300.738281 180.671875 300.132812 179.722656 299.03125 C 179.011719 298.199219 178.980469 297.5625 179.429688 297.078125 C 179.339844 297.089844 179.25 297.097656 179.164062 297.109375 C 167.628906 305.285156 156.785156 297.4375 141.9375 284.785156 C 141.945312 284.773438 141.949219 284.765625 141.957031 284.761719 C 131.671875 278.109375 122.558594 271.152344 122.558594 271.152344 C 116.625 266.550781 113.105469 262.929688 111.25 259.828125 C 107.722656 259.726562 103.65625 258.441406 99.191406 255.042969 C 97.921875 255.738281 96.625 256.382812 95.191406 256.679688 C 93.664062 256.992188 91.992188 256.875 90.625 256.074219 C 90.355469 255.917969 90.101562 255.722656 89.871094 255.503906 L 28.460938 263.53125 C 18.9375 264.777344 15.753906 276.996094 23.464844 282.738281 L 79.855469 324.761719 C 89.539062 331.976562 101.6875 335.054688 113.632812 333.324219 L 300.183594 306.3125 C 303.984375 305.761719 306.71875 303.496094 308.171875 300.613281 C 310.457031 296.066406 309.53125 289.992188 304.4375 286.710938 " fill-opacity="1" fill-rule="nonzero"/><path fill="#facbc3" d="M 116.457031 205.785156 C 116.511719 205.839844 116.554688 205.894531 116.601562 205.949219 C 118.28125 206.011719 119.9375 206.71875 121.175781 208.046875 C 123.648438 210.714844 123.496094 214.882812 120.835938 217.359375 C 120.8125 217.382812 120.78125 217.40625 120.757812 217.429688 C 124.296875 220.242188 126.125 223.472656 126.125 223.472656 C 126.125 223.472656 133.480469 229.101562 135.167969 236.105469 C 143.703125 229.019531 142.304688 220.347656 140.558594 215.527344 C 140.464844 215.265625 140.359375 215.023438 140.242188 214.792969 C 139.648438 213.589844 138.800781 212.785156 137.8125 212.25 C 135.691406 209.988281 132.40625 207.164062 128.683594 206.363281 C 122.199219 204.972656 114.542969 202.523438 112.253906 200.734375 C 111.933594 201.414062 111.859375 202.109375 111.957031 202.804688 C 112.257812 203.308594 112.480469 203.84375 112.636719 204.394531 C 114.011719 204.226562 115.445312 204.691406 116.457031 205.785156 " fill-opacity="1" fill-rule="nonzero"/><path fill="#ffffff" d="M 281.386719 219.929688 C 285.171875 199.453125 301.78125 150.355469 315.867188 135.957031 C 315.867188 135.957031 315.871094 135.953125 315.875 135.949219 C 312.519531 135.175781 308.992188 134.441406 305.386719 133.792969 C 305.230469 134.925781 305.042969 135.992188 304.8125 136.964844 C 302.128906 142.847656 292.503906 147.320312 284.234375 142.488281 C 281.792969 141.0625 280.605469 138.199219 281.261719 135.449219 C 281.507812 134.398438 281.707031 133.1875 281.867188 131.894531 C 278.148438 131.972656 274.445312 132.195312 270.894531 132.496094 C 264.980469 150.96875 273.523438 202.367188 281.386719 219.929688 " fill-opacity="1" fill-rule="nonzero"/><path fill="#f4b5af" d="M 284.234375 142.484375 C 292.507812 147.320312 302.132812 142.847656 304.8125 136.964844 C 305.046875 135.992188 305.234375 134.925781 305.386719 133.789062 C 306.382812 126.433594 305.863281 116.171875 305.367188 109.769531 C 304.945312 109.886719 304.515625 109.972656 304.078125 110.023438 C 304.042969 110.132812 304.011719 110.257812 303.976562 110.367188 C 302.605469 114.792969 299.769531 118.59375 295.953125 121.144531 C 292.179688 123.667969 289.027344 126.351562 282.210938 128.078125 C 282.136719 129.378906 282.019531 130.671875 281.871094 131.894531 C 281.710938 133.183594 281.511719 134.398438 281.261719 135.449219 C 280.605469 138.199219 281.796875 141.058594 284.234375 142.484375 " fill-opacity="1" fill-rule="nonzero"/><path fill="#fbcfc7" d="M 264.558594 101.734375 C 264.046875 101.191406 264.074219 100.332031 264.621094 99.820312 C 265.164062 99.304688 266.019531 99.335938 266.53125 99.878906 C 267.042969 100.425781 267.015625 101.285156 266.472656 101.792969 C 265.929688 102.304688 265.070312 102.277344 264.558594 101.734375 Z M 267.527344 101.207031 C 266.785156 98.546875 265.074219 96.492188 263.058594 95.507812 C 263.554688 100.160156 264.472656 104.972656 265.621094 109.652344 C 267.609375 107.824219 268.453125 104.523438 267.527344 101.207031 " fill-opacity="1" fill-rule="nonzero"/><path fill="#fbcfc7" d="M 279.464844 99.445312 C 280.007812 98.933594 280.867188 98.960938 281.375 99.503906 C 281.886719 100.050781 281.863281 100.910156 281.316406 101.421875 C 280.773438 101.933594 279.917969 101.90625 279.40625 101.359375 C 278.894531 100.816406 278.917969 99.957031 279.464844 99.445312 Z M 283.097656 110.75 C 286.59375 109.773438 288.445312 105.425781 287.226562 101.058594 C 286.003906 96.6875 282.167969 93.929688 278.675781 94.910156 C 275.179688 95.886719 273.332031 100.238281 274.550781 104.605469 C 275.769531 108.972656 279.605469 111.726562 283.097656 110.75 " fill-opacity="1" fill-rule="nonzero"/><path fill="#fbcfc7" d="M 282.644531 115.683594 C 279.097656 117.453125 275.3125 118.390625 271.34375 117.917969 C 270.363281 117.800781 270.351562 116.246094 271.34375 116.363281 C 275.042969 116.804688 278.542969 115.996094 281.859375 114.339844 C 282.753906 113.894531 283.539062 115.238281 282.644531 115.683594 Z M 275.726562 121.460938 C 274.539062 122.113281 273.175781 122.265625 271.882812 121.84375 C 270.9375 121.535156 271.34375 120.035156 272.296875 120.34375 C 273.199219 120.640625 274.101562 120.578125 274.941406 120.117188 C 275.816406 119.636719 276.601562 120.980469 275.726562 121.460938 Z M 311.804688 96.214844 C 312.804688 96.21875 312.804688 97.773438 311.804688 97.773438 C 310.203125 97.769531 308.542969 99.539062 307.640625 100.707031 C 308.398438 100.753906 309.144531 101.007812 309.773438 101.46875 C 310.570312 102.054688 309.792969 103.402344 308.988281 102.808594 C 308.261719 102.277344 307.457031 102.125 306.609375 102.371094 C 306.21875 103.160156 305.933594 103.996094 305.738281 104.871094 C 305.519531 105.847656 304.023438 105.429688 304.242188 104.460938 C 304.679688 102.484375 305.570312 100.6875 306.902344 99.164062 C 308.085938 97.804688 309.90625 96.214844 311.804688 96.214844 Z M 287.226562 93.40625 C 283.910156 92.039062 280.488281 91.527344 276.917969 91.867188 C 275.921875 91.960938 275.933594 90.40625 276.917969 90.3125 C 280.609375 89.960938 284.207031 90.492188 287.640625 91.910156 C 288.550781 92.285156 288.148438 93.789062 287.226562 93.40625 Z M 303.976562 110.367188 C 304.007812 110.257812 304.042969 110.136719 304.078125 110.023438 C 304.515625 109.972656 304.945312 109.886719 305.363281 109.769531 C 310.023438 108.441406 313.71875 103.074219 314.722656 98.46875 C 315.246094 96.066406 315.042969 93.875 313.859375 92.574219 C 311.945312 90.457031 309.046875 92.441406 306.585938 95.015625 C 301.375 93.417969 298.042969 80.453125 297.359375 77.550781 C 291.730469 80.679688 280.652344 85.664062 266.285156 86.253906 C 265.023438 86.300781 263.835938 86.261719 262.707031 86.148438 C 262.644531 87.480469 262.644531 88.851562 262.683594 90.242188 C 263.917969 90.023438 265.183594 90.101562 266.398438 90.488281 C 267.351562 90.789062 266.941406 92.285156 265.984375 91.984375 C 264.894531 91.640625 263.820312 91.585938 262.753906 91.8125 C 262.792969 92.5 262.839844 93.191406 262.898438 93.890625 C 265.613281 94.878906 267.964844 97.425781 268.914062 100.820312 C 269.015625 101.179688 269.089844 101.539062 269.15625 101.894531 C 269.15625 101.894531 269.160156 101.890625 269.164062 101.890625 C 269.265625 100.121094 269.214844 98.3125 269.089844 96.363281 C 269.070312 96.046875 269.050781 95.71875 269.179688 95.433594 C 269.800781 93.984375 271.082031 95.660156 271.328125 96.367188 C 271.429688 96.664062 271.496094 96.945312 271.523438 97.136719 C 271.746094 98.757812 271.976562 100.378906 272.207031 102 C 272.398438 102.101562 272.578125 102.207031 272.75 102.324219 C 272.601562 98.183594 274.769531 94.507812 278.285156 93.523438 C 282.542969 92.332031 287.175781 95.539062 288.609375 100.671875 C 290.042969 105.800781 287.742188 110.949219 283.484375 112.140625 C 279.226562 113.332031 274.597656 110.125 273.164062 104.992188 C 273.109375 104.792969 273.070312 104.597656 273.023438 104.398438 C 272.898438 104.273438 272.707031 104.097656 272.472656 103.910156 C 272.765625 106.007812 273.054688 108.113281 273.332031 110.214844 C 273.386719 110.644531 273.441406 111.085938 273.324219 111.5 C 272.890625 113.042969 270.171875 113.160156 268.898438 113.199219 C 268.398438 113.210938 267.875 113.109375 267.515625 112.761719 C 267.191406 112.441406 267.0625 111.964844 267.070312 111.511719 C 267.078125 110.949219 267.242188 110.339844 267.433594 109.78125 C 267.019531 110.320312 266.546875 110.796875 266.007812 111.195312 C 267.761719 118.007812 269.957031 124.457031 271.960938 129.617188 C 276.152344 129.308594 279.476562 128.769531 282.210938 128.078125 C 289.027344 126.351562 292.179688 123.667969 295.953125 121.144531 C 299.769531 118.59375 302.601562 114.792969 303.976562 110.367188 " fill-opacity="1" fill-rule="nonzero"/><path fill="#efae9f" d="M 272.203125 101.996094 C 271.976562 100.378906 271.746094 98.757812 271.523438 97.136719 C 271.496094 96.945312 271.429688 96.664062 271.328125 96.363281 C 271.082031 95.660156 269.800781 93.984375 269.179688 95.429688 C 269.050781 95.71875 269.070312 96.046875 269.089844 96.363281 C 269.21875 98.3125 269.265625 100.121094 269.160156 101.890625 C 269.480469 101.671875 269.800781 101.570312 270.070312 101.527344 C 270.804688 101.410156 271.554688 101.652344 272.203125 101.996094 " fill-opacity="1" fill-rule="nonzero"/><path fill="#efae9f" d="M 270.296875 102.949219 C 270.175781 102.972656 269.800781 103.03125 269.472656 103.714844 C 269.433594 103.792969 269.386719 103.855469 269.332031 103.910156 C 269.328125 106.148438 268.640625 108.226562 267.433594 109.785156 C 267.242188 110.339844 267.074219 110.949219 267.070312 111.511719 C 267.0625 111.964844 267.191406 112.445312 267.515625 112.761719 C 267.871094 113.109375 268.398438 113.214844 268.894531 113.199219 C 270.171875 113.160156 272.886719 113.046875 273.324219 111.5 C 273.441406 111.085938 273.386719 110.644531 273.332031 110.21875 C 273.054688 108.113281 272.765625 106.011719 272.46875 103.910156 C 271.851562 103.414062 270.960938 102.84375 270.296875 102.949219 " fill-opacity="1" fill-rule="nonzero"/><path fill="#44344a" d="M 281.316406 101.421875 C 281.863281 100.910156 281.886719 100.050781 281.375 99.507812 C 280.867188 98.960938 280.007812 98.933594 279.46875 99.445312 C 278.917969 99.957031 278.894531 100.816406 279.40625 101.359375 C 279.917969 101.902344 280.773438 101.929688 281.316406 101.421875 " fill-opacity="1" fill-rule="nonzero"/><path fill="#44344a" d="M 266.53125 99.882812 C 266.019531 99.335938 265.160156 99.308594 264.617188 99.820312 C 264.074219 100.332031 264.046875 101.191406 264.558594 101.734375 C 265.066406 102.28125 265.925781 102.308594 266.46875 101.796875 C 267.011719 101.285156 267.039062 100.429688 266.53125 99.882812 " fill-opacity="1" fill-rule="nonzero"/><path fill="#d36823" d="M 287.640625 91.90625 C 284.207031 90.492188 280.613281 89.960938 276.917969 90.3125 C 275.933594 90.40625 275.921875 91.960938 276.917969 91.867188 C 280.488281 91.523438 283.910156 92.039062 287.226562 93.40625 C 288.148438 93.789062 288.550781 92.28125 287.640625 91.90625 " fill-opacity="1" fill-rule="nonzero"/><path fill="#d36823" d="M 265.988281 91.984375 C 266.945312 92.285156 267.355469 90.785156 266.402344 90.484375 C 265.183594 90.101562 263.917969 90.019531 262.683594 90.242188 C 262.179688 90.328125 261.679688 90.46875 261.191406 90.664062 C 260.273438 91.027344 260.671875 92.53125 261.601562 92.164062 C 261.984375 92.007812 262.367188 91.894531 262.753906 91.8125 C 263.824219 91.585938 264.894531 91.640625 265.988281 91.984375 " fill-opacity="1" fill-rule="nonzero"/><path fill="#efae9f" d="M 274.941406 120.121094 C 274.101562 120.582031 273.199219 120.640625 272.292969 120.347656 C 271.34375 120.039062 270.933594 121.539062 271.882812 121.84375 C 273.175781 122.265625 274.535156 122.113281 275.722656 121.460938 C 276.597656 120.980469 275.816406 119.636719 274.941406 120.121094 " fill-opacity="1" fill-rule="nonzero"/><path fill="#efae9f" d="M 281.859375 114.339844 C 278.542969 115.996094 275.046875 116.804688 271.34375 116.363281 C 270.351562 116.246094 270.363281 117.796875 271.34375 117.917969 C 275.3125 118.390625 279.097656 117.449219 282.644531 115.683594 C 283.539062 115.238281 282.753906 113.894531 281.859375 114.339844 " fill-opacity="1" fill-rule="nonzero"/><path fill="#bf45aa" d="M 263.40625 110.902344 C 259.910156 111.882812 256.074219 109.121094 254.855469 104.753906 C 253.636719 100.386719 255.484375 96.039062 258.980469 95.0625 C 260.347656 94.679688 261.761719 94.871094 263.058594 95.507812 C 265.074219 96.496094 266.785156 98.546875 267.527344 101.207031 C 268.457031 104.523438 267.609375 107.824219 265.621094 109.652344 C 264.992188 110.230469 264.246094 110.667969 263.40625 110.902344 Z M 278.675781 94.910156 C 282.167969 93.929688 286.003906 96.6875 287.222656 101.058594 C 288.445312 105.425781 286.59375 109.773438 283.097656 110.75 C 279.601562 111.730469 275.769531 108.976562 274.550781 104.605469 C 273.328125 100.238281 275.179688 95.886719 278.675781 94.910156 Z M 267.433594 109.785156 C 268.644531 108.222656 269.332031 106.148438 269.332031 103.90625 C 269.390625 103.851562 269.4375 103.789062 269.476562 103.714844 C 269.804688 103.027344 270.175781 102.96875 270.296875 102.949219 C 270.960938 102.84375 271.855469 103.410156 272.472656 103.90625 C 272.707031 104.09375 272.902344 104.273438 273.023438 104.398438 C 273.070312 104.597656 273.109375 104.792969 273.164062 104.992188 C 274.597656 110.125 279.226562 113.332031 283.488281 112.140625 C 287.742188 110.949219 290.042969 105.804688 288.609375 100.671875 C 287.175781 95.535156 282.546875 92.332031 278.285156 93.519531 C 274.773438 94.503906 272.601562 98.183594 272.753906 102.324219 C 272.578125 102.207031 272.398438 102.097656 272.207031 101.996094 C 271.554688 101.652344 270.804688 101.410156 270.070312 101.527344 C 269.804688 101.570312 269.484375 101.671875 269.164062 101.890625 C 269.160156 101.890625 269.15625 101.894531 269.15625 101.890625 C 269.089844 101.539062 269.015625 101.179688 268.914062 100.820312 C 267.964844 97.425781 265.617188 94.878906 262.898438 93.890625 C 261.515625 93.378906 260.035156 93.269531 258.59375 93.671875 C 254.335938 94.863281 252.039062 100.011719 253.46875 105.148438 C 254.902344 110.277344 259.535156 113.484375 263.789062 112.292969 C 264.609375 112.0625 265.351562 111.6875 266.011719 111.195312 C 266.546875 110.796875 267.019531 110.316406 267.433594 109.785156 " fill-opacity="1" fill-rule="nonzero"/><path fill="#f8a054" d="M 266.285156 86.253906 C 280.652344 85.664062 291.734375 80.679688 297.359375 77.550781 C 298.042969 80.453125 301.375 93.417969 306.585938 95.015625 C 309.046875 92.441406 311.945312 90.457031 313.863281 92.574219 C 315.042969 93.875 315.246094 96.070312 314.722656 98.46875 C 317.039062 95.621094 321.3125 88.117188 318.851562 73.339844 C 316.429688 58.792969 305.894531 57.332031 300.496094 57.578125 C 285.472656 40.3125 254.878906 63.433594 250.753906 65.308594 C 246.558594 67.210938 243.078125 62.96875 243.078125 62.96875 C 243.078125 62.96875 244.910156 84.320312 262.703125 86.148438 C 263.835938 86.261719 265.023438 86.304688 266.285156 86.253906 " fill-opacity="1" fill-rule="nonzero"/><path fill="#efae9f" d="M 306.898438 99.167969 C 305.570312 100.6875 304.679688 102.484375 304.238281 104.457031 C 304.023438 105.429688 305.519531 105.847656 305.734375 104.871094 C 305.929688 103.996094 306.21875 103.160156 306.609375 102.375 C 307.453125 102.128906 308.257812 102.277344 308.984375 102.8125 C 309.792969 103.40625 310.570312 102.054688 309.769531 101.46875 C 309.144531 101.011719 308.394531 100.757812 307.640625 100.710938 C 308.539062 99.539062 310.199219 97.769531 311.800781 97.773438 C 312.800781 97.773438 312.804688 96.21875 311.800781 96.21875 C 309.90625 96.214844 308.085938 97.808594 306.898438 99.167969 " fill-opacity="1" fill-rule="nonzero"/><path fill="#ffffff" d="M 205.140625 262.507812 C 205.15625 261.382812 205.503906 260.390625 206.34375 259.648438 C 207.511719 261.78125 212.09375 265.910156 216.6875 269.378906 C 217.03125 269.058594 217.371094 268.726562 217.699219 268.359375 C 220.359375 264.824219 225.613281 256.578125 224.199219 253.636719 C 221.703125 248.4375 218.714844 245.097656 216.632812 245.441406 C 215.15625 245.679688 211.394531 249.019531 208.792969 254.28125 C 208.011719 252.765625 207.140625 251.207031 206.148438 249.648438 C 204.953125 252.621094 203.015625 255.351562 200.683594 257.757812 C 202.347656 259.222656 203.828125 260.824219 205.140625 262.507812 " fill-opacity="1" fill-rule="nonzero"/><path fill="#883f3e" d="M 178.710938 236.394531 C 179.675781 235.804688 180.609375 235.300781 181.347656 235.011719 C 182.175781 234.695312 183.125 234.910156 183.523438 235.605469 C 183.84375 236.15625 183.792969 236.921875 182.710938 237.695312 C 181.234375 238.75 178.746094 240.425781 177.605469 241.183594 C 176.519531 242.796875 174.75 244.339844 172.335938 245.320312 C 172.21875 245.367188 172.113281 245.398438 172 245.445312 C 171.320312 246.582031 170.480469 247.953125 169.523438 249.449219 C 172.226562 251.640625 174.492188 254.070312 176.5625 256.929688 C 184.171875 252.746094 192.789062 251.257812 199.757812 256.964844 C 200.070312 257.222656 200.378906 257.488281 200.683594 257.757812 C 203.015625 255.351562 204.953125 252.621094 206.148438 249.648438 C 204.285156 246.722656 202.027344 243.8125 199.328125 241.195312 C 196.980469 238.925781 194.304688 236.878906 191.234375 235.25 C 190.796875 235.015625 190.355469 234.804688 189.914062 234.617188 C 186.722656 233.25 183.515625 233.015625 180.398438 233.609375 C 179.703125 234.472656 179.015625 235.316406 178.503906 235.933594 C 178.589844 236.078125 178.65625 236.230469 178.710938 236.394531 " fill-opacity="1" fill-rule="nonzero"/><path fill="#883f3e" d="M 158.472656 226.746094 C 158.472656 226.742188 158.472656 226.734375 158.472656 226.71875 C 158.480469 226.722656 158.484375 226.726562 158.488281 226.726562 C 158.484375 226.734375 158.480469 226.742188 158.472656 226.746094 Z M 156.609375 235.394531 C 156.652344 235.292969 156.6875 235.179688 156.71875 235.0625 C 157.636719 234.632812 158.421875 233.957031 159 233.109375 C 162.015625 228.714844 162.515625 226.132812 162.59375 225.292969 C 162.613281 225.109375 162.488281 224.949219 162.3125 224.90625 C 160.640625 224.484375 159.546875 225.261719 158.683594 226.445312 C 158.875 225.101562 159.207031 219.421875 158.652344 216.820312 C 158.464844 215.933594 157.746094 215.242188 156.917969 215.292969 C 156.257812 215.332031 155.628906 215.800781 155.566406 217.15625 C 155.503906 218.527344 155.457031 220.558594 155.433594 222.089844 C 155.226562 222.066406 155.003906 222.054688 154.78125 222.050781 C 154.675781 220.003906 154.457031 217.6875 154.042969 216.300781 C 153.785156 215.433594 153.011719 214.800781 152.195312 214.914062 C 151.539062 215.003906 150.945312 215.523438 150.992188 216.878906 C 151.046875 218.453125 151.191406 220.894531 151.292969 222.449219 C 151.160156 222.476562 151.03125 222.503906 150.902344 222.53125 C 150.632812 220.503906 150.21875 218.214844 149.6875 216.867188 C 149.355469 216.027344 148.519531 215.46875 147.703125 215.65625 C 147.046875 215.804688 146.492188 216.378906 146.648438 217.726562 C 146.84375 219.386719 147.226562 222.007812 147.453125 223.527344 C 147.3125 223.605469 147.175781 223.699219 147.050781 223.804688 C 146.542969 222.832031 146.019531 221.949219 145.546875 221.339844 C 145.019531 220.664062 144.121094 220.367188 143.445312 220.746094 C 142.902344 221.050781 142.566406 221.707031 143.078125 222.890625 C 143.78125 224.507812 145.015625 227.136719 145.582031 228.339844 C 145.640625 229.445312 145.910156 230.644531 146.429688 231.863281 C 146.136719 232.003906 145.832031 232.152344 145.515625 232.320312 C 143.132812 233.582031 141.054688 235.222656 139.261719 237 C 144.0625 237.519531 149.078125 238.6875 153.875 240.585938 C 155.328125 238 156.347656 236.019531 156.609375 235.394531 " fill-opacity="1" fill-rule="nonzero"/><path fill="#ae5c55" d="M 133.921875 244.445312 C 134.007812 244.554688 134.09375 244.667969 134.175781 244.789062 C 136.949219 248.753906 130.914062 254.78125 127.714844 253.75 C 127.195312 253.613281 126.71875 253.414062 126.289062 253.164062 C 125.773438 253.230469 125.339844 253.210938 125.042969 253.101562 C 123.871094 254.804688 118.800781 260.039062 111.25 259.828125 C 113.105469 262.929688 116.625 266.550781 122.554688 271.152344 C 122.554688 271.152344 131.671875 278.113281 141.957031 284.761719 C 147.421875 278.460938 150.988281 272.542969 153.273438 267.234375 C 150.484375 268.433594 145.933594 269.921875 138.3125 271.925781 C 122.460938 276.097656 118.515625 262.074219 124.382812 257.503906 C 129.675781 253.371094 145.703125 252.992188 148.761719 252.957031 C 150.308594 250.226562 152.800781 246.507812 156.28125 243.320312 C 155.980469 242.042969 155.699219 241.359375 155.699219 241.359375 C 156.335938 241.644531 156.953125 241.933594 157.558594 242.214844 C 157.558594 242.214844 157.5625 242.214844 157.5625 242.210938 C 156.367188 241.628906 155.15625 241.09375 153.925781 240.605469 C 153.910156 240.597656 153.890625 240.589844 153.875 240.585938 C 149.078125 238.6875 144.0625 237.519531 139.261719 237 C 137.921875 236.859375 136.597656 236.761719 135.300781 236.71875 C 135.773438 239.199219 135.5 241.835938 133.921875 244.445312 " fill-opacity="1" fill-rule="nonzero"/><path fill="#ffffff" d="M 224.652344 273.074219 C 223.996094 272.375 223.316406 271.980469 222.65625 271.953125 C 222.203125 271.9375 221.492188 272.160156 220.617188 272.605469 C 221.117188 273.164062 221.570312 273.765625 221.980469 274.382812 L 224.652344 273.074219 " fill-opacity="1" fill-rule="nonzero"/><path fill="#ffffff" d="M 165.953125 296.597656 C 160.425781 296.007812 155.941406 291.480469 155.652344 286.085938 C 155.324219 280.039062 158.113281 274.285156 161.800781 269.5625 C 165.257812 265.140625 170.601562 260.207031 176.5625 256.929688 C 174.492188 254.070312 172.226562 251.640625 169.523438 249.449219 C 165.589844 255.609375 159.792969 263.777344 156.027344 265.808594 C 155.378906 266.242188 154.496094 266.710938 153.273438 267.234375 C 150.988281 272.542969 147.421875 278.460938 141.957031 284.761719 C 141.949219 284.765625 141.945312 284.777344 141.9375 284.785156 C 156.78125 297.4375 167.628906 305.285156 179.160156 297.109375 C 174.125 297.679688 169.402344 296.964844 165.953125 296.597656 " fill-opacity="1" fill-rule="nonzero"/><path fill="#ffffff" d="M 155.699219 241.359375 C 155.699219 241.359375 155.980469 242.042969 156.28125 243.320312 C 156.691406 242.945312 157.117188 242.574219 157.558594 242.214844 C 156.953125 241.933594 156.335938 241.644531 155.699219 241.359375 " fill-opacity="1" fill-rule="nonzero"/><path fill="#cd7c79" d="M 185.171875 295.738281 C 185.753906 295.53125 186.335938 295.300781 186.917969 295.042969 L 174.40625 294.367188 C 173.410156 294.3125 172.472656 293.703125 172.097656 292.761719 C 170.257812 288.144531 186.5625 288.863281 193.417969 289.359375 C 193.382812 288.898438 193.359375 288.4375 193.355469 287.976562 L 171.023438 287.128906 C 170.101562 287.089844 169.234375 286.5 168.949219 285.605469 C 167.144531 279.9375 194.007812 281.628906 194.074219 281.636719 C 194.164062 281.226562 194.257812 280.832031 194.355469 280.449219 L 178.472656 280.132812 C 177.351562 280.109375 176.25 279.589844 175.589844 278.65625 C 172.773438 274.6875 187.644531 274.613281 196.285156 274.890625 C 196.292969 274.875 196.296875 274.863281 196.296875 274.863281 C 196.296875 274.863281 204.1875 273.445312 210.082031 273.09375 C 207.800781 270.035156 205.097656 265.707031 205.140625 262.507812 C 203.828125 260.824219 202.347656 259.222656 200.683594 257.757812 C 200.378906 257.488281 200.070312 257.222656 199.757812 256.964844 C 192.789062 251.257812 184.171875 252.746094 176.5625 256.929688 C 170.601562 260.207031 165.257812 265.140625 161.800781 269.5625 C 158.113281 274.285156 155.324219 280.039062 155.652344 286.085938 C 155.941406 291.480469 160.425781 296.007812 165.953125 296.597656 C 169.402344 296.964844 174.125 297.679688 179.160156 297.109375 C 179.253906 297.097656 179.339844 297.089844 179.429688 297.078125 C 180.210938 296.242188 182.453125 295.863281 185.171875 295.738281 " fill-opacity="1" fill-rule="nonzero"/><path fill="#cd7c79" d="M 126.582031 249.785156 C 126.851562 250.265625 127.183594 250.769531 127.597656 251.300781 C 127.777344 251.535156 128.011719 251.730469 128.304688 251.828125 C 130.234375 252.480469 132.621094 249.160156 132.472656 247.390625 C 132.414062 246.6875 131.953125 245.933594 131.3125 245.265625 C 130.917969 245.796875 130.488281 246.324219 130.019531 246.824219 C 128.96875 247.957031 127.769531 248.984375 126.582031 249.785156 " fill-opacity="1" fill-rule="nonzero"/><path fill="#ae5c55" d="M 121.765625 235.667969 C 120.386719 236.195312 116.289062 230.230469 115.769531 230.390625 C 114.308594 230.84375 115.796875 235.039062 117.902344 237.382812 C 119.429688 239.082031 120.84375 240.308594 121.511719 240.03125 C 123.109375 239.363281 125.296875 234.320312 121.765625 235.667969 " fill-opacity="1" fill-rule="nonzero"/><path fill="#8e534f" d="M 106.332031 239.105469 C 106.488281 239.769531 107.507812 239.488281 107.351562 238.828125 C 106.878906 236.835938 107.847656 234.628906 110.082031 234.480469 C 110.757812 234.433594 110.765625 233.375 110.082031 233.425781 C 107.148438 233.617188 105.691406 236.410156 106.332031 239.105469 " fill-opacity="1" fill-rule="nonzero"/><path fill="#8e534f" d="M 118.683594 225.773438 C 119.007812 224.421875 120.8125 222.882812 122.097656 224.160156 C 122.578125 224.640625 123.328125 223.894531 122.84375 223.410156 C 121 221.574219 118.179688 223.335938 117.664062 225.488281 C 117.503906 226.152344 118.523438 226.433594 118.683594 225.773438 " fill-opacity="1" fill-rule="nonzero"/><path fill="#44344a" d="M 121.59375 227.082031 C 120.992188 227.40625 120.777344 228.167969 121.121094 228.785156 C 121.460938 229.398438 122.226562 229.628906 122.828125 229.304688 C 123.433594 228.980469 123.644531 228.21875 123.304688 227.601562 C 122.964844 226.988281 122.199219 226.753906 121.59375 227.082031 " fill-opacity="1" fill-rule="nonzero"/><path fill="#44344a" d="M 112.609375 239.121094 C 113.214844 238.796875 113.425781 238.035156 113.085938 237.421875 C 112.742188 236.808594 111.980469 236.574219 111.375 236.898438 C 110.773438 237.226562 110.558594 237.988281 110.898438 238.605469 C 111.242188 239.21875 112.007812 239.449219 112.609375 239.121094 " fill-opacity="1" fill-rule="nonzero"/><path fill="#44344a" d="M 93.597656 249.339844 C 93.859375 249.089844 94.078125 248.816406 94.265625 248.523438 C 95.894531 249.378906 97.957031 249.167969 99.382812 247.839844 C 101.1875 246.160156 101.289062 243.328125 99.609375 241.519531 C 99.601562 241.511719 99.589844 241.5 99.582031 241.492188 C 101.242188 239.796875 101.300781 237.078125 99.664062 235.320312 C 99.546875 235.191406 99.417969 235.074219 99.289062 234.960938 C 99.367188 234.898438 99.445312 234.835938 99.519531 234.769531 C 100.679688 233.683594 101.132812 232.121094 100.859375 230.667969 C 101.917969 230.644531 102.976562 230.253906 103.8125 229.476562 C 104.507812 228.828125 104.949219 228.007812 105.132812 227.140625 C 106.316406 227.214844 107.523438 226.828125 108.460938 225.953125 C 109.402344 225.078125 109.875 223.890625 109.878906 222.695312 C 111.117188 222.824219 112.40625 222.445312 113.390625 221.523438 C 114.15625 220.808594 114.613281 219.886719 114.761719 218.925781 C 116.816406 219.4375 119.074219 218.949219 120.757812 217.429688 C 120.78125 217.40625 120.8125 217.382812 120.835938 217.359375 C 123.496094 214.882812 123.648438 210.714844 121.175781 208.046875 C 119.9375 206.71875 118.28125 206.011719 116.601562 205.949219 C 116.554688 205.894531 116.511719 205.839844 116.457031 205.785156 C 115.445312 204.691406 114.011719 204.226562 112.636719 204.394531 C 112.480469 203.84375 112.257812 203.308594 111.957031 202.804688 C 111.722656 202.410156 111.445312 202.035156 111.121094 201.6875 C 108.648438 199.023438 104.480469 198.875 101.820312 201.347656 C 101.4375 201.710938 101.109375 202.109375 100.828125 202.53125 C 98.355469 200.925781 95.027344 201.128906 92.769531 203.230469 C 92.433594 203.546875 92.136719 203.886719 91.878906 204.253906 C 89.988281 203.988281 88 204.550781 86.492188 205.949219 C 85.214844 207.144531 84.519531 208.734375 84.414062 210.351562 C 83.523438 210.636719 82.671875 211.113281 81.941406 211.792969 C 80.65625 212.992188 79.960938 214.585938 79.859375 216.207031 C 78.457031 216.332031 77.082031 216.902344 75.964844 217.941406 C 73.496094 220.242188 73.195312 224 75.148438 226.660156 C 75.074219 226.71875 75 226.777344 74.929688 226.84375 C 72.269531 229.320312 72.121094 233.488281 74.59375 236.152344 C 74.621094 236.179688 74.648438 236.203125 74.675781 236.230469 C 73.550781 238.601562 73.90625 241.515625 75.796875 243.550781 C 77.289062 245.15625 79.398438 245.839844 81.417969 245.597656 C 81.519531 246.519531 81.902344 247.421875 82.582031 248.152344 C 83.84375 249.515625 85.753906 249.910156 87.386719 249.308594 C 88.304688 250.207031 89.511719 250.636719 90.710938 250.582031 C 91.546875 249.984375 92.578125 249.566406 93.597656 249.339844 " fill-opacity="1" fill-rule="nonzero"/><path fill="#cd7c79" d="M 110.082031 233.425781 C 110.765625 233.375 110.757812 234.433594 110.082031 234.480469 C 107.847656 234.628906 106.878906 236.835938 107.351562 238.828125 C 107.507812 239.488281 106.488281 239.769531 106.332031 239.105469 C 105.691406 236.410156 107.148438 233.617188 110.082031 233.425781 Z M 122.84375 223.410156 C 123.328125 223.894531 122.578125 224.640625 122.097656 224.160156 C 120.8125 222.882812 119.007812 224.421875 118.683594 225.773438 C 118.523438 226.433594 117.503906 226.152344 117.664062 225.488281 C 118.179688 223.335938 121 221.574219 122.84375 223.410156 Z M 123.304688 227.601562 C 123.644531 228.21875 123.433594 228.980469 122.828125 229.304688 C 122.226562 229.628906 121.460938 229.398438 121.121094 228.785156 C 120.777344 228.167969 120.992188 227.40625 121.59375 227.082031 C 122.199219 226.753906 122.964844 226.988281 123.304688 227.601562 Z M 121.511719 240.03125 C 120.84375 240.308594 119.429688 239.082031 117.902344 237.382812 C 115.796875 235.039062 114.308594 230.84375 115.769531 230.390625 C 116.289062 230.230469 120.386719 236.195312 121.765625 235.667969 C 125.296875 234.320312 123.109375 239.363281 121.511719 240.03125 Z M 111.375 236.898438 C 111.980469 236.574219 112.742188 236.808594 113.085938 237.421875 C 113.425781 238.035156 113.214844 238.796875 112.609375 239.121094 C 112.007812 239.449219 111.242188 239.21875 110.898438 238.605469 C 110.558594 237.988281 110.773438 237.226562 111.375 236.898438 Z M 96.683594 251.550781 C 95.292969 251.398438 93.988281 251.988281 93.269531 253.207031 C 92.925781 253.792969 92.011719 253.261719 92.359375 252.671875 C 93.246094 251.160156 94.933594 250.296875 96.683594 250.492188 C 97.351562 250.570312 97.355469 251.628906 96.683594 251.550781 Z M 95.1875 256.679688 C 96.625 256.382812 97.921875 255.738281 99.191406 255.042969 C 103.65625 258.441406 107.722656 259.726562 111.25 259.828125 C 118.800781 260.039062 123.871094 254.804688 125.042969 253.101562 C 125.339844 253.210938 125.773438 253.230469 126.289062 253.164062 C 125.382812 252.648438 124.6875 251.914062 124.203125 251.0625 C 122.621094 251.652344 120.867188 251.792969 119.324219 251.15625 C 118.34375 250.753906 117.457031 249.996094 117.148438 248.984375 C 116.746094 247.644531 117.445312 246.183594 118.453125 245.214844 C 119.464844 244.246094 120.753906 243.636719 121.929688 242.878906 C 123.371094 241.953125 124.207031 240.425781 125.144531 239.042969 C 125.949219 237.855469 126.953125 236.6875 128.324219 236.253906 C 132.539062 234.933594 134.011719 240.117188 132.605469 243.152344 C 133.058594 243.484375 133.5 243.90625 133.921875 244.445312 C 135.5 241.835938 135.773438 239.199219 135.300781 236.71875 C 135.261719 236.511719 135.21875 236.304688 135.167969 236.105469 C 133.480469 229.101562 126.125 223.472656 126.125 223.472656 C 126.125 223.472656 124.296875 220.242188 120.757812 217.429688 C 119.074219 218.949219 116.816406 219.4375 114.761719 218.925781 C 114.613281 219.886719 114.15625 220.808594 113.390625 221.523438 C 112.40625 222.445312 111.117188 222.824219 109.878906 222.695312 C 109.875 223.890625 109.402344 225.078125 108.460938 225.953125 C 107.523438 226.828125 106.316406 227.214844 105.132812 227.140625 C 104.949219 228.007812 104.507812 228.828125 103.8125 229.476562 C 102.976562 230.253906 101.917969 230.644531 100.859375 230.667969 C 101.132812 232.121094 100.679688 233.683594 99.519531 234.769531 C 99.445312 234.835938 99.367188 234.898438 99.289062 234.960938 C 99.417969 235.074219 99.546875 235.191406 99.664062 235.320312 C 101.300781 237.078125 101.242188 239.796875 99.582031 241.492188 C 99.589844 241.5 99.601562 241.511719 99.609375 241.519531 C 101.289062 243.328125 101.1875 246.160156 99.382812 247.839844 C 97.957031 249.167969 95.894531 249.378906 94.265625 248.523438 C 94.078125 248.816406 93.859375 249.089844 93.597656 249.339844 C 92.578125 249.566406 91.546875 249.984375 90.710938 250.582031 C 89.632812 251.347656 88.886719 252.40625 88.957031 253.71875 C 88.992188 254.402344 89.363281 255.019531 89.871094 255.503906 C 90.101562 255.722656 90.355469 255.917969 90.625 256.074219 C 91.992188 256.878906 93.664062 256.992188 95.1875 256.679688 " fill-opacity="1" fill-rule="nonzero"/><path fill="#f2b0a1" d="M 96.683594 250.492188 C 94.933594 250.296875 93.246094 251.160156 92.359375 252.671875 C 92.011719 253.261719 92.925781 253.792969 93.269531 253.207031 C 93.988281 251.988281 95.292969 251.398438 96.683594 251.550781 C 97.355469 251.628906 97.351562 250.570312 96.683594 250.492188 " fill-opacity="1" fill-rule="nonzero"/><path fill="#c5ebd9" d="M 123.425781 248.136719 C 122.867188 248.152344 122.402344 248.011719 122.101562 247.683594 C 121.117188 246.625 122.148438 244.066406 124.402344 241.96875 C 126.660156 239.871094 129.28125 239.023438 130.261719 240.078125 C 130.695312 240.542969 130.738281 241.296875 130.457031 242.175781 C 131.144531 242.324219 131.882812 242.621094 132.605469 243.152344 C 134.011719 240.117188 132.539062 234.933594 128.324219 236.253906 C 126.953125 236.6875 125.949219 237.855469 125.144531 239.042969 C 124.207031 240.425781 123.371094 241.953125 121.929688 242.878906 C 120.753906 243.636719 119.464844 244.246094 118.453125 245.214844 C 117.445312 246.183594 116.746094 247.644531 117.148438 248.984375 C 117.457031 249.996094 118.34375 250.753906 119.324219 251.15625 C 120.867188 251.792969 122.621094 251.652344 124.203125 251.0625 C 123.699219 250.179688 123.4375 249.175781 123.425781 248.136719 " fill-opacity="1" fill-rule="nonzero"/><path fill="#c5ebd9" d="M 127.957031 245.792969 C 127.214844 246.488281 126.429688 247.039062 125.675781 247.433594 C 125.808594 248.113281 126.085938 248.902344 126.582031 249.785156 C 127.769531 248.984375 128.96875 247.957031 130.019531 246.824219 C 130.488281 246.324219 130.917969 245.796875 131.3125 245.265625 C 130.808594 244.738281 130.199219 244.269531 129.578125 243.917969 C 129.148438 244.546875 128.605469 245.191406 127.957031 245.792969 " fill-opacity="1" fill-rule="nonzero"/><path fill="#9fddbe" d="M 131.3125 245.265625 C 131.953125 245.933594 132.414062 246.6875 132.472656 247.390625 C 132.621094 249.160156 130.234375 252.480469 128.304688 251.828125 C 128.011719 251.730469 127.777344 251.535156 127.597656 251.300781 C 127.183594 250.769531 126.851562 250.265625 126.582031 249.785156 C 126.085938 248.902344 125.808594 248.113281 125.675781 247.433594 C 126.429688 247.039062 127.214844 246.488281 127.957031 245.792969 C 128.605469 245.191406 129.148438 244.546875 129.578125 243.917969 C 130.199219 244.269531 130.808594 244.738281 131.3125 245.265625 Z M 134.175781 244.789062 C 134.09375 244.667969 134.007812 244.554688 133.921875 244.445312 C 133.5 243.90625 133.058594 243.484375 132.605469 243.152344 C 131.882812 242.621094 131.144531 242.324219 130.457031 242.175781 C 130.738281 241.296875 130.695312 240.542969 130.261719 240.078125 C 129.28125 239.023438 126.660156 239.871094 124.402344 241.96875 C 122.148438 244.066406 121.117188 246.625 122.101562 247.683594 C 122.402344 248.011719 122.867188 248.152344 123.425781 248.136719 C 123.4375 249.175781 123.699219 250.179688 124.203125 251.0625 C 124.6875 251.914062 125.382812 252.648438 126.289062 253.164062 C 126.71875 253.414062 127.195312 253.613281 127.714844 253.75 C 130.914062 254.78125 136.949219 248.753906 134.175781 244.789062 " fill-opacity="1" fill-rule="nonzero"/><path fill="#cd7c79" d="M 167.058594 232.898438 C 167.054688 232.90625 167.046875 232.914062 167.046875 232.921875 C 167.042969 232.914062 167.042969 232.90625 167.042969 232.898438 C 167.046875 232.898438 167.054688 232.898438 167.058594 232.898438 Z M 157.558594 242.214844 C 157.117188 242.574219 156.691406 242.945312 156.28125 243.320312 C 152.800781 246.507812 150.308594 250.226562 148.761719 252.957031 C 145.703125 252.992188 129.675781 253.371094 124.382812 257.503906 C 118.515625 262.074219 122.460938 276.097656 138.3125 271.925781 C 145.933594 269.921875 150.484375 268.433594 153.273438 267.234375 C 154.496094 266.710938 155.378906 266.242188 156.027344 265.808594 C 159.792969 263.777344 165.589844 255.609375 169.523438 249.449219 C 170.480469 247.953125 171.320312 246.582031 172 245.445312 C 172.113281 245.398438 172.21875 245.367188 172.335938 245.320312 C 174.75 244.339844 176.519531 242.796875 177.605469 241.183594 C 178.746094 240.425781 181.234375 238.75 182.710938 237.695312 C 183.792969 236.921875 183.84375 236.15625 183.523438 235.605469 C 183.125 234.910156 182.175781 234.695312 181.347656 235.011719 C 180.609375 235.300781 179.675781 235.804688 178.710938 236.394531 C 178.65625 236.230469 178.589844 236.078125 178.503906 235.933594 C 179.015625 235.316406 179.703125 234.472656 180.398438 233.609375 C 181.082031 232.765625 181.769531 231.902344 182.292969 231.226562 C 183.144531 230.117188 182.957031 229.316406 182.457031 228.835938 C 181.832031 228.234375 180.800781 228.289062 180.058594 228.859375 C 178.875 229.761719 177.296875 231.570312 175.976562 233.21875 C 175.878906 233.125 175.78125 233.03125 175.679688 232.941406 C 176.59375 231.617188 178.015625 229.535156 178.902344 228.171875 C 179.65625 226.992188 179.410156 226.222656 178.878906 225.789062 C 178.214844 225.253906 177.195312 225.40625 176.507812 226.035156 C 175.40625 227.039062 173.980469 228.976562 172.804688 230.730469 C 172.601562 230.613281 172.402344 230.507812 172.207031 230.417969 C 172.996094 229.046875 174.035156 227.230469 174.707031 225.984375 C 175.371094 224.753906 175.0625 224 174.496094 223.613281 C 173.792969 223.132812 172.785156 223.363281 172.152344 224.042969 C 170.285156 226.050781 167.566406 231.253906 167.019531 232.539062 C 166.882812 231.039062 166.328125 229.761719 164.628906 229.25 C 164.445312 229.195312 164.253906 229.273438 164.171875 229.445312 C 163.796875 230.230469 162.867188 232.78125 163.207031 238.269531 C 163.214844 238.402344 163.238281 238.527344 163.253906 238.65625 C 163.089844 238.734375 162.925781 238.800781 162.75 238.886719 C 162.015625 239.234375 161.3125 239.621094 160.628906 240.035156 C 159.539062 240.695312 158.519531 241.429688 157.5625 242.210938 C 157.5625 242.214844 157.558594 242.214844 157.558594 242.214844 " fill-opacity="1" fill-rule="nonzero"/><path fill="#9fddbe" d="M 225.472656 272.675781 L 224.652344 273.074219 L 221.984375 274.382812 C 223.105469 276.078125 223.917969 277.921875 224.476562 279.476562 C 225.269531 280.480469 225.753906 281.746094 225.660156 283.398438 C 225.511719 285.898438 224.898438 289.253906 222.984375 292.335938 C 230.515625 292.101562 243.167969 291.679688 258.101562 291.085938 C 275.023438 290.410156 290.261719 286.902344 300.246094 284.011719 C 307.78125 281.832031 312.316406 280 312.316406 280 C 312.316406 280 332.105469 276.597656 343.066406 225.234375 C 354.019531 173.863281 358.25 153.9375 341.941406 150.4375 C 325.632812 146.933594 309.65625 170.605469 306.207031 191.316406 C 303.378906 208.316406 299.160156 232.265625 296.433594 247.617188 C 284.6875 249.410156 271.492188 253.523438 259.695312 257.914062 C 240.789062 264.945312 225.472656 272.675781 225.472656 272.675781 " fill-opacity="1" fill-rule="nonzero"/><path fill="#facbc3" d="M 225.65625 283.398438 C 225.753906 281.746094 225.269531 280.480469 224.476562 279.476562 C 223.914062 277.921875 223.105469 276.078125 221.980469 274.382812 C 221.570312 273.765625 221.117188 273.164062 220.617188 272.605469 C 220.035156 271.945312 219.386719 271.339844 218.671875 270.832031 C 218.019531 270.367188 217.351562 269.878906 216.6875 269.378906 C 212.09375 265.910156 207.511719 261.78125 206.34375 259.648438 C 205.503906 260.390625 205.15625 261.382812 205.140625 262.507812 C 205.097656 265.707031 207.800781 270.035156 210.082031 273.09375 C 204.1875 273.445312 196.296875 274.863281 196.296875 274.863281 C 196.296875 274.863281 196.292969 274.875 196.285156 274.890625 C 187.644531 274.613281 172.773438 274.6875 175.589844 278.65625 C 176.25 279.589844 177.351562 280.109375 178.472656 280.132812 L 194.355469 280.449219 C 194.257812 280.832031 194.164062 281.226562 194.074219 281.636719 C 194.007812 281.628906 167.144531 279.9375 168.949219 285.605469 C 169.234375 286.5 170.101562 287.089844 171.023438 287.128906 L 193.355469 287.976562 C 193.359375 288.4375 193.382812 288.898438 193.417969 289.359375 C 186.5625 288.863281 170.257812 288.144531 172.097656 292.761719 C 172.472656 293.703125 173.410156 294.3125 174.40625 294.367188 L 186.917969 295.042969 L 195.136719 295.484375 C 195.242188 295.675781 195.351562 295.867188 195.46875 296.058594 C 192.511719 295.820312 188.484375 295.59375 185.171875 295.738281 C 182.453125 295.863281 180.210938 296.242188 179.429688 297.078125 C 178.976562 297.5625 179.011719 298.199219 179.722656 299.03125 C 180.671875 300.132812 182.09375 300.738281 183.527344 300.742188 L 203.429688 300.808594 L 203.234375 300.589844 C 214.476562 300.828125 220.15625 296.882812 222.984375 292.335938 C 224.898438 289.253906 225.511719 285.898438 225.65625 283.398438 " fill-opacity="1" fill-rule="nonzero"/></svg>