<svg xmlns="http://www.w3.org/2000/svg" xmlns:xlink="http://www.w3.org/1999/xlink" width="500" zoomAndPan="magnify" viewBox="0 0 375 374.999991" height="500" preserveAspectRatio="xMidYMid meet" version="1.0"><defs><clipPath id="858a759705"><path d="M 19.78125 14.148438 L 355 14.148438 L 355 360.648438 L 19.78125 360.648438 Z M 19.78125 14.148438 " clip-rule="nonzero"/></clipPath></defs><path fill="#ffc05a" d="M 275.140625 212.308594 C 279.347656 212.308594 282.761719 215.722656 282.761719 219.929688 C 282.761719 224.144531 279.347656 227.558594 275.140625 227.558594 C 270.925781 227.558594 267.511719 224.144531 267.511719 219.929688 C 267.511719 215.722656 270.925781 212.308594 275.140625 212.308594 Z M 275.140625 212.308594 " fill-opacity="1" fill-rule="nonzero"/><path fill="#ffc05a" d="M 93.527344 186.5 C 93.527344 187.394531 93.492188 188.289062 93.425781 189.179688 C 93.359375 190.070312 93.261719 190.953125 93.128906 191.832031 C 92.996094 192.710938 92.832031 193.578125 92.636719 194.433594 C 92.441406 195.292969 92.214844 196.132812 91.953125 196.960938 C 91.695312 197.789062 91.40625 198.597656 91.089844 199.386719 C 90.769531 200.175781 90.421875 200.945312 90.046875 201.6875 C 89.671875 202.433594 89.269531 203.152344 88.839844 203.84375 C 88.410156 204.535156 87.957031 205.199219 87.480469 205.832031 C 87.003906 206.464844 86.5 207.066406 85.980469 207.632812 C 85.457031 208.203125 84.914062 208.734375 84.351562 209.230469 C 83.789062 209.730469 83.210938 210.1875 82.613281 210.609375 C 82.019531 211.035156 81.410156 211.414062 80.785156 211.757812 C 80.160156 212.101562 79.523438 212.402344 78.875 212.664062 C 78.230469 212.921875 77.574219 213.140625 76.910156 213.3125 C 76.25 213.488281 75.582031 213.621094 74.90625 213.707031 C 74.234375 213.796875 73.5625 213.839844 72.882812 213.839844 C 72.207031 213.839844 71.535156 213.796875 70.859375 213.707031 C 70.1875 213.621094 69.519531 213.488281 68.859375 213.3125 C 68.195312 213.140625 67.539062 212.921875 66.894531 212.664062 C 66.246094 212.402344 65.609375 212.101562 64.984375 211.757812 C 64.359375 211.414062 63.75 211.035156 63.152344 210.609375 C 62.558594 210.1875 61.980469 209.730469 61.417969 209.230469 C 60.855469 208.734375 60.3125 208.203125 59.789062 207.632812 C 59.265625 207.066406 58.765625 206.464844 58.289062 205.832031 C 57.8125 205.199219 57.355469 204.535156 56.929688 203.84375 C 56.5 203.152344 56.097656 202.433594 55.722656 201.6875 C 55.347656 200.945312 55 200.175781 54.679688 199.386719 C 54.363281 198.597656 54.074219 197.789062 53.8125 196.960938 C 53.554688 196.132812 53.328125 195.292969 53.132812 194.433594 C 52.9375 193.578125 52.773438 192.710938 52.640625 191.832031 C 52.507812 190.953125 52.410156 190.070312 52.34375 189.179688 C 52.277344 188.289062 52.242188 187.394531 52.242188 186.5 C 52.242188 185.601562 52.277344 184.710938 52.34375 183.820312 C 52.410156 182.929688 52.507812 182.042969 52.640625 181.164062 C 52.773438 180.285156 52.9375 179.417969 53.132812 178.5625 C 53.328125 177.707031 53.554688 176.863281 53.8125 176.035156 C 54.074219 175.207031 54.363281 174.398438 54.679688 173.609375 C 55 172.820312 55.347656 172.054688 55.722656 171.308594 C 56.097656 170.566406 56.5 169.847656 56.929688 169.152344 C 57.355469 168.460938 57.8125 167.800781 58.289062 167.167969 C 58.765625 166.53125 59.265625 165.933594 59.789062 165.363281 C 60.3125 164.796875 60.855469 164.261719 61.417969 163.765625 C 61.980469 163.269531 62.558594 162.808594 63.152344 162.386719 C 63.75 161.964844 64.359375 161.582031 64.984375 161.238281 C 65.609375 160.898438 66.246094 160.59375 66.894531 160.335938 C 67.539062 160.074219 68.195312 159.859375 68.859375 159.683594 C 69.519531 159.507812 70.1875 159.378906 70.859375 159.289062 C 71.535156 159.203125 72.207031 159.160156 72.882812 159.160156 C 73.5625 159.160156 74.234375 159.203125 74.90625 159.289062 C 75.582031 159.378906 76.25 159.507812 76.910156 159.683594 C 77.574219 159.859375 78.230469 160.074219 78.875 160.335938 C 79.523438 160.59375 80.160156 160.898438 80.785156 161.238281 C 81.410156 161.582031 82.019531 161.964844 82.613281 162.386719 C 83.210938 162.808594 83.789062 163.269531 84.351562 163.765625 C 84.914062 164.261719 85.457031 164.796875 85.980469 165.363281 C 86.5 165.933594 87.003906 166.53125 87.480469 167.167969 C 87.957031 167.800781 88.410156 168.460938 88.839844 169.152344 C 89.269531 169.847656 89.671875 170.566406 90.046875 171.308594 C 90.421875 172.054688 90.769531 172.820312 91.089844 173.609375 C 91.40625 174.398438 91.695312 175.207031 91.953125 176.035156 C 92.214844 176.863281 92.441406 177.707031 92.636719 178.5625 C 92.832031 179.417969 92.996094 180.285156 93.128906 181.164062 C 93.261719 182.042969 93.359375 182.929688 93.425781 183.820312 C 93.492188 184.710938 93.527344 185.601562 93.527344 186.5 Z M 93.527344 186.5 " fill-opacity="1" fill-rule="nonzero"/><path fill="#ffc05a" d="M 31.761719 128.203125 C 36.75 128.203125 40.792969 132.246094 40.792969 137.238281 C 40.792969 142.222656 36.75 146.261719 31.761719 146.261719 C 26.777344 146.261719 22.734375 142.222656 22.734375 137.238281 C 22.734375 132.246094 26.777344 128.203125 31.761719 128.203125 Z M 31.761719 128.203125 " fill-opacity="1" fill-rule="nonzero"/><path fill="#ffc05a" d="M 202.707031 18.398438 C 206.917969 18.398438 210.328125 21.8125 210.328125 26.027344 C 210.328125 30.234375 206.917969 33.648438 202.707031 33.648438 C 198.5 33.648438 195.078125 30.234375 195.078125 26.027344 C 195.078125 21.8125 198.5 18.398438 202.707031 18.398438 Z M 202.707031 18.398438 " fill-opacity="1" fill-rule="nonzero"/><path fill="#ffc05a" d="M 335.257812 63.140625 C 335.257812 64.035156 335.222656 64.929688 335.160156 65.820312 C 335.09375 66.710938 334.992188 67.597656 334.859375 68.472656 C 334.730469 69.351562 334.566406 70.21875 334.367188 71.078125 C 334.171875 71.933594 333.945312 72.777344 333.6875 73.601562 C 333.425781 74.429688 333.140625 75.238281 332.820312 76.027344 C 332.5 76.820312 332.15625 77.585938 331.777344 78.332031 C 331.402344 79.074219 331 79.792969 330.570312 80.484375 C 330.144531 81.175781 329.691406 81.839844 329.210938 82.472656 C 328.734375 83.105469 328.234375 83.707031 327.710938 84.273438 C 327.1875 84.84375 326.644531 85.375 326.082031 85.875 C 325.523438 86.371094 324.941406 86.832031 324.347656 87.253906 C 323.75 87.675781 323.140625 88.058594 322.515625 88.398438 C 321.890625 88.742188 321.253906 89.042969 320.609375 89.304688 C 319.960938 89.5625 319.304688 89.78125 318.644531 89.957031 C 317.980469 90.128906 317.3125 90.261719 316.640625 90.347656 C 315.964844 90.4375 315.292969 90.480469 314.617188 90.480469 C 313.941406 90.480469 313.265625 90.4375 312.59375 90.347656 C 311.921875 90.261719 311.253906 90.128906 310.589844 89.957031 C 309.925781 89.78125 309.269531 89.5625 308.625 89.304688 C 307.976562 89.042969 307.339844 88.742188 306.71875 88.398438 C 306.09375 88.058594 305.480469 87.675781 304.886719 87.253906 C 304.289062 86.832031 303.710938 86.371094 303.148438 85.875 C 302.585938 85.375 302.042969 84.84375 301.519531 84.273438 C 301 83.707031 300.5 83.105469 300.019531 82.472656 C 299.542969 81.839844 299.089844 81.175781 298.660156 80.484375 C 298.230469 79.792969 297.828125 79.074219 297.453125 78.332031 C 297.078125 77.585938 296.730469 76.820312 296.410156 76.027344 C 296.09375 75.238281 295.804688 74.429688 295.546875 73.601562 C 295.289062 72.777344 295.058594 71.933594 294.863281 71.078125 C 294.667969 70.21875 294.503906 69.351562 294.371094 68.472656 C 294.238281 67.597656 294.140625 66.710938 294.074219 65.820312 C 294.007812 64.929688 293.972656 64.035156 293.972656 63.140625 C 293.972656 62.246094 294.007812 61.351562 294.074219 60.460938 C 294.140625 59.570312 294.238281 58.683594 294.371094 57.804688 C 294.503906 56.929688 294.667969 56.0625 294.863281 55.203125 C 295.058594 54.347656 295.289062 53.503906 295.546875 52.675781 C 295.804688 51.851562 296.09375 51.042969 296.410156 50.253906 C 296.730469 49.460938 297.078125 48.695312 297.453125 47.949219 C 297.828125 47.207031 298.230469 46.488281 298.660156 45.796875 C 299.089844 45.105469 299.542969 44.441406 300.019531 43.808594 C 300.5 43.175781 301 42.574219 301.519531 42.003906 C 302.042969 41.4375 302.585938 40.90625 303.148438 40.40625 C 303.710938 39.910156 304.289062 39.449219 304.886719 39.027344 C 305.480469 38.605469 306.09375 38.222656 306.71875 37.882812 C 307.339844 37.539062 307.976562 37.238281 308.625 36.976562 C 309.269531 36.71875 309.925781 36.5 310.589844 36.324219 C 311.253906 36.152344 311.921875 36.019531 312.59375 35.929688 C 313.265625 35.84375 313.941406 35.800781 314.617188 35.800781 C 315.292969 35.800781 315.964844 35.84375 316.640625 35.929688 C 317.3125 36.019531 317.980469 36.152344 318.644531 36.324219 C 319.304688 36.5 319.960938 36.71875 320.609375 36.976562 C 321.253906 37.238281 321.890625 37.539062 322.515625 37.882812 C 323.140625 38.222656 323.75 38.605469 324.347656 39.027344 C 324.941406 39.449219 325.523438 39.910156 326.082031 40.40625 C 326.644531 40.90625 327.1875 41.4375 327.710938 42.003906 C 328.234375 42.574219 328.734375 43.175781 329.210938 43.808594 C 329.691406 44.441406 330.144531 45.105469 330.570312 45.796875 C 331 46.488281 331.402344 47.207031 331.777344 47.949219 C 332.15625 48.695312 332.5 49.460938 332.820312 50.253906 C 333.140625 51.042969 333.425781 51.851562 333.6875 52.675781 C 333.945312 53.503906 334.171875 54.347656 334.367188 55.203125 C 334.566406 56.0625 334.730469 56.929688 334.859375 57.804688 C 334.992188 58.683594 335.09375 59.570312 335.160156 60.460938 C 335.222656 61.351562 335.257812 62.246094 335.257812 63.140625 Z M 335.257812 63.140625 " fill-opacity="1" fill-rule="nonzero"/><path fill="#f48ca7" d="M 266.238281 49.941406 C 272.21875 51.878906 275.484375 58.296875 273.539062 64.269531 C 271.601562 70.242188 265.1875 73.515625 259.210938 71.570312 C 258.179688 71.238281 257.011719 70.691406 255.804688 70 C 256.089844 71.363281 256.242188 72.636719 256.242188 73.730469 C 256.242188 80.007812 251.15625 85.101562 244.871094 85.101562 C 238.589844 85.101562 233.496094 80.007812 233.496094 73.730469 C 233.496094 72.636719 233.65625 71.363281 233.941406 70 C 232.726562 70.691406 231.566406 71.238281 230.535156 71.570312 C 227.230469 72.644531 223.800781 72.125 221.058594 70.4375 C 218.835938 69.074219 217.070312 66.941406 216.199219 64.269531 C 214.261719 58.296875 217.527344 51.878906 223.5 49.941406 C 224.539062 49.601562 225.800781 49.359375 227.183594 49.207031 C 226.152344 48.273438 225.273438 47.332031 224.636719 46.453125 C 220.941406 41.371094 222.070312 34.257812 227.148438 30.566406 C 232.230469 26.871094 239.347656 28 243.035156 33.078125 C 243.679688 33.957031 244.300781 35.085938 244.871094 36.355469 C 245.445312 35.085938 246.066406 33.957031 246.703125 33.078125 C 250.398438 28 257.507812 26.871094 262.589844 30.566406 C 267.671875 34.257812 268.800781 41.371094 265.109375 46.453125 C 264.464844 47.332031 263.59375 48.273438 262.5625 49.207031 C 263.945312 49.359375 265.207031 49.601562 266.238281 49.941406 Z M 266.238281 49.941406 " fill-opacity="1" fill-rule="nonzero"/><path fill="#4aaf8f" d="M 192.324219 45.09375 C 178.460938 49.304688 169.800781 58.773438 165.890625 73.03125 C 155.703125 84.546875 158.058594 94.582031 163.480469 103.355469 C 166.25 106.097656 168.566406 109.191406 170.449219 112.617188 C 174.578125 108.925781 178.121094 104.863281 181.089844 100.441406 L 181.097656 100.441406 L 187.402344 88.460938 C 192.351562 76.113281 193.929688 61.617188 192.324219 45.09375 Z M 192.324219 45.09375 " fill-opacity="1" fill-rule="nonzero"/><path fill="#ffc05a" d="M 159.210938 39.882812 C 156.972656 35.65625 152.121094 32.492188 146.203125 34.054688 C 140.292969 35.625 132.765625 42.339844 130.074219 47.824219 L 136.25 59.484375 C 142.296875 60.351562 152.074219 57.90625 156.703125 53.90625 C 161.328125 49.90625 161.445312 44.113281 159.210938 39.882812 Z M 159.210938 39.882812 " fill-opacity="1" fill-rule="nonzero"/><path fill="#ffc05a" d="M 131.09375 26.640625 C 128.71875 21.007812 123.242188 19.105469 118.527344 19.929688 C 113.816406 20.746094 109.308594 24.386719 108.96875 30.492188 C 108.636719 36.597656 112.691406 45.828125 117.082031 50.085938 L 130.074219 47.824219 C 132.765625 42.339844 133.464844 32.285156 131.09375 26.640625 Z M 131.09375 26.640625 " fill-opacity="1" fill-rule="nonzero"/><path fill="#ffc05a" d="M 97.25 42.574219 C 91.152344 43.09375 87.65625 47.710938 86.976562 52.445312 C 86.300781 57.179688 88.367188 62.59375 94.074219 64.800781 C 99.777344 67.003906 109.8125 66 115.210938 63.140625 L 117.082031 50.085938 C 112.691406 45.828125 103.339844 42.058594 97.25 42.574219 Z M 97.25 42.574219 " fill-opacity="1" fill-rule="nonzero"/><path fill="#ffc05a" d="M 127.054688 68.953125 C 128.101562 74.96875 125.960938 84.824219 122.101562 89.566406 C 118.238281 94.316406 112.449219 94.605469 108.160156 92.503906 C 103.859375 90.390625 100.550781 85.636719 101.941406 79.683594 C 103.335938 73.722656 109.8125 66 115.210938 63.140625 C 120.527344 64.851562 124.917969 67.605469 127.054688 68.953125 Z M 127.054688 68.953125 " fill-opacity="1" fill-rule="nonzero"/><path fill="#ffc05a" d="M 127.054688 68.953125 C 120.78125 59.882812 126.574219 57.558594 136.25 59.484375 C 142.296875 60.359375 151 65.429688 154.316406 70.566406 C 155.679688 72.679688 156.234375 74.867188 156.171875 76.949219 L 156.171875 76.957031 C 153.929688 86.726562 149.921875 91.746094 141.953125 88.050781 C 140.867188 87.78125 139.765625 87.339844 138.683594 86.679688 C 133.453125 83.519531 128.101562 74.96875 127.054688 68.953125 Z M 127.054688 68.953125 " fill-opacity="1" fill-rule="nonzero"/><path fill="#604533" d="M 136.25 59.484375 C 135.585938 64.171875 131.976562 68.101562 127.054688 68.953125 C 122.140625 69.8125 117.414062 67.328125 115.210938 63.140625 C 114.671875 62.121094 114.285156 61.007812 114.078125 59.816406 C 113.433594 56.144531 114.664062 52.570312 117.082031 50.085938 C 118.667969 48.4375 120.777344 47.261719 123.207031 46.839844 C 125.636719 46.417969 128.019531 46.804688 130.074219 47.824219 C 133.1875 49.34375 135.558594 52.292969 136.195312 55.976562 C 136.402344 57.167969 136.414062 58.351562 136.25 59.484375 Z M 136.25 59.484375 " fill-opacity="1" fill-rule="nonzero"/><path fill="#e15c63" d="M 306.792969 128.109375 C 309.257812 137.761719 300.398438 148.292969 289.023438 146.027344 C 277.652344 143.757812 263.152344 124.410156 263.152344 124.410156 C 263.152344 124.410156 266.613281 100.488281 275.507812 93.050781 C 284.402344 85.609375 297.222656 90.597656 299.683594 100.261719 C 302.15625 109.925781 292.949219 116.8125 292.949219 116.8125 C 292.949219 116.8125 304.328125 118.445312 306.792969 128.109375 Z M 306.792969 128.109375 " fill-opacity="1" fill-rule="nonzero"/><path fill="#53b79a" d="M 165.890625 73.03125 C 162.351562 74.167969 159.113281 75.476562 156.171875 76.957031 C 150.210938 79.953125 145.476562 83.648438 141.953125 88.050781 C 136.628906 94.691406 134.0625 102.917969 134.207031 112.714844 L 147.523438 120.121094 C 148.308594 120.847656 149.035156 121.613281 149.71875 122.398438 C 156.046875 116.757812 160.636719 110.410156 163.480469 103.355469 C 167.101562 94.386719 167.902344 84.28125 165.890625 73.03125 Z M 165.890625 73.03125 " fill-opacity="1" fill-rule="nonzero"/><path fill="#53b79a" d="M 201.476562 103.355469 C 210.167969 93.644531 221.839844 91.257812 236.488281 96.207031 C 230.0625 110.949219 219.429688 118.75 203.261719 117.425781 L 203.253906 117.425781 C 199.214844 113.441406 195.289062 108.851562 201.46875 103.355469 Z M 201.476562 103.355469 " fill-opacity="1" fill-rule="nonzero"/><path fill="#6fceae" d="M 201.46875 103.355469 C 202.894531 107.703125 203.296875 112.824219 203.253906 117.425781 C 197.03125 116.285156 192.074219 114.144531 188.324219 111.046875 C 184.953125 108.277344 182.558594 104.726562 181.097656 100.441406 C 179.628906 96.171875 179.101562 91.167969 179.457031 85.464844 C 179.457031 85.464844 183.035156 86.253906 187.402344 88.460938 C 190.171875 89.859375 193.257812 91.824219 195.945312 94.515625 L 195.945312 94.523438 C 197.230469 95.8125 198.429688 97.269531 199.453125 98.910156 C 200.285156 100.246094 200.949219 101.75 201.46875 103.355469 Z M 201.46875 103.355469 " fill-opacity="1" fill-rule="nonzero"/><path fill="#6fceae" d="M 134.207031 112.714844 C 139.722656 114.175781 144.085938 116.867188 147.523438 120.121094 C 130.890625 134.144531 112.292969 134.316406 92.011719 122.652344 C 92.011719 122.652344 111.234375 106.628906 134.207031 112.714844 Z M 134.207031 112.714844 " fill-opacity="1" fill-rule="nonzero"/><path fill="#6fceae" d="M 160.117188 146.261719 C 167.457031 157.0625 162.320312 157.40625 153.714844 154.867188 C 135.859375 165.609375 116.671875 165.410156 96.550781 157.566406 C 114.089844 141.230469 135.164062 137.058594 160.117188 146.261719 Z M 160.117188 146.261719 " fill-opacity="1" fill-rule="nonzero"/><path fill="#6fceae" d="M 286.601562 185.328125 C 265.296875 193.28125 246.210938 191.910156 231.117188 173.667969 C 219.351562 168.847656 220.503906 159.628906 224.933594 150.0625 C 254.171875 146.996094 274.488281 159.160156 286.601562 185.328125 Z M 286.601562 185.328125 " fill-opacity="1" fill-rule="nonzero"/><path fill="#f7b6ad" d="M 195.078125 241.167969 C 195.078125 241.167969 197.550781 256.101562 182.835938 256.707031 L 182.835938 244.449219 C 186.972656 244.074219 191.09375 242.953125 195.078125 241.167969 Z M 195.078125 241.167969 " fill-opacity="1" fill-rule="nonzero"/><path fill="#fec4b9" d="M 166.59375 330 C 189.539062 326.195312 194.355469 335.351562 181.046875 357.464844 L 156.605469 357.464844 C 145.25 339.445312 148.578125 330.292969 166.59375 330 Z M 166.59375 330 " fill-opacity="1" fill-rule="nonzero"/><path fill="#fec4b9" d="M 250.808594 287.605469 C 244.65625 260.519531 214.328125 256.707031 214.328125 256.707031 L 214.328125 226.042969 C 220.523438 218.546875 225.5 209.113281 228.449219 198.371094 C 230.769531 189.925781 231.59375 181.535156 231.117188 173.667969 C 230.582031 164.957031 228.445312 156.882812 224.933594 150.0625 C 219.902344 140.269531 212.058594 133.078125 202.113281 130.351562 C 196.59375 128.835938 190.933594 128.835938 185.386719 130.128906 C 182.433594 130.8125 179.519531 131.871094 176.671875 133.269531 C 170.699219 136.207031 165.058594 140.636719 160.117188 146.257812 C 160.117188 146.261719 160.117188 146.261719 160.117188 146.261719 C 157.8125 148.878906 155.664062 151.757812 153.714844 154.867188 C 149.90625 160.917969 146.824219 167.832031 144.75 175.398438 C 136.179688 206.621094 147.96875 237.074219 171.082031 243.414062 C 174.957031 244.480469 178.902344 244.800781 182.835938 244.449219 L 182.835938 256.707031 C 182.835938 256.707031 156.605469 259.101562 144.132812 274.148438 C 131.660156 289.195312 135.8125 320.695312 135.8125 320.695312 L 217.320312 357.464844 L 235.179688 357.464844 C 235.179688 357.464844 256.960938 314.683594 250.808594 287.605469 Z M 250.808594 287.605469 " fill-opacity="1" fill-rule="nonzero"/><path fill="#ffd7d2" d="M 208.453125 340.617188 L 187.824219 301.414062 C 184.953125 295.953125 179.375 292.828125 173.605469 292.828125 C 171.085938 292.828125 168.527344 293.425781 166.144531 294.679688 C 164.367188 295.621094 162.828125 296.84375 161.578125 298.269531 C 161.417969 298.207031 161.265625 298.152344 161.113281 298.097656 C 159.300781 297.441406 157.445312 297.128906 155.625 297.128906 C 149.070312 297.128906 142.914062 301.175781 140.539062 307.699219 L 135.8125 320.695312 L 122.453125 357.464844 L 156.605469 357.464844 L 166.59375 330 L 181.046875 357.464844 L 217.320312 357.464844 Z M 208.453125 340.617188 " fill-opacity="1" fill-rule="nonzero"/><path fill="#f7b6ad" d="M 220.828125 303.117188 L 208.453125 340.617188 L 198.914062 322.484375 C 211.132812 320.019531 220.539062 303.628906 220.828125 303.117188 Z M 220.828125 303.117188 " fill-opacity="1" fill-rule="nonzero"/><g clip-path="url(#858a759705)"><path fill="#3a322b" d="M 186.878906 201.441406 C 188.085938 202.378906 188.304688 204.117188 187.367188 205.324219 C 187.15625 205.59375 182.367188 211.617188 173.554688 211.617188 C 173.0625 211.617188 172.5625 211.597656 172.046875 211.558594 C 162.269531 210.8125 158.023438 203.390625 157.847656 203.074219 C 157.105469 201.738281 157.582031 200.054688 158.917969 199.308594 C 160.25 198.566406 161.929688 199.039062 162.675781 200.363281 C 162.820312 200.609375 165.757812 205.527344 172.46875 206.039062 C 179.3125 206.558594 182.957031 201.972656 182.992188 201.925781 C 183.929688 200.71875 185.671875 200.503906 186.878906 201.441406 Z M 108.667969 41.925781 C 107 37.90625 106.023438 33.671875 106.207031 30.339844 C 106.628906 22.613281 112.460938 18.171875 118.054688 17.199219 C 123.648438 16.226562 130.636719 18.4375 133.640625 25.570312 C 134.9375 28.644531 135.449219 32.960938 135.238281 37.304688 C 138.542969 34.476562 142.269531 32.238281 145.496094 31.382812 C 152.976562 29.398438 159 33.570312 161.65625 38.589844 C 164.308594 43.605469 164.367188 50.9375 158.511719 56 C 155.988281 58.183594 152.039062 60 147.839844 61.140625 C 151.550781 63.410156 154.832031 66.265625 156.644531 69.066406 C 157.421875 70.273438 158.007812 71.554688 158.394531 72.875 C 160.070312 72.15625 161.824219 71.484375 163.65625 70.863281 C 168.0625 56.296875 177.421875 46.726562 191.519531 42.445312 C 192.316406 42.207031 193.175781 42.332031 193.863281 42.792969 C 194.554688 43.253906 195 44 195.082031 44.828125 C 196.640625 60.84375 195.214844 75.078125 190.851562 87.179688 C 192.375 88.070312 193.933594 89.117188 195.445312 90.347656 C 200.78125 82.878906 207.828125 76.113281 216.464844 70.167969 C 215.175781 68.722656 214.183594 67.023438 213.566406 65.125 C 212.398438 61.535156 212.699219 57.703125 214.417969 54.335938 C 216.03125 51.171875 218.710938 48.773438 222.015625 47.53125 C 220.074219 44.582031 219.3125 41.066406 219.871094 37.554688 C 220.460938 33.824219 222.46875 30.546875 225.523438 28.328125 C 228.578125 26.105469 232.316406 25.210938 236.050781 25.800781 C 239.558594 26.355469 242.667969 28.167969 244.871094 30.921875 C 247.078125 28.167969 250.183594 26.355469 253.695312 25.800781 C 257.425781 25.210938 261.164062 26.105469 264.21875 28.328125 C 267.277344 30.546875 269.285156 33.824219 269.875 37.554688 C 270.429688 41.066406 269.667969 44.582031 267.730469 47.53125 C 271.03125 48.773438 273.714844 51.171875 275.328125 54.335938 C 277.042969 57.703125 277.34375 61.535156 276.175781 65.128906 C 275.011719 68.71875 272.515625 71.640625 269.148438 73.355469 C 265.984375 74.96875 262.40625 75.332031 259 74.398438 C 258.648438 81.886719 252.445312 87.871094 244.875 87.871094 C 237.300781 87.871094 231.097656 81.886719 230.746094 74.398438 C 227.5625 75.273438 224.230469 74.996094 221.222656 73.640625 C 212.097656 79.660156 204.789062 86.582031 199.460938 94.257812 C 200.296875 95.242188 201.085938 96.300781 201.800781 97.445312 C 202.019531 97.792969 202.226562 98.152344 202.421875 98.515625 C 211.519531 90.480469 223.253906 88.816406 237.371094 93.582031 C 238.105469 93.828125 238.703125 94.375 239.019531 95.082031 C 239.332031 95.792969 239.335938 96.601562 239.023438 97.3125 C 232.359375 112.605469 221.503906 120.339844 206.726562 120.339844 C 206.472656 120.339844 206.210938 120.328125 205.957031 120.324219 C 205.8125 123.648438 205.484375 126.519531 205.222656 128.425781 C 210.519531 130.292969 215.210938 133.382812 219.1875 137.410156 C 222.027344 133.371094 228.214844 125.875 236.878906 122.632812 C 245.640625 119.355469 255.960938 120.378906 260.894531 121.171875 C 262.152344 114.375 265.96875 97.417969 273.730469 90.925781 C 278.578125 86.871094 284.785156 85.648438 290.761719 87.578125 C 296.507812 89.429688 300.953125 94.027344 302.371094 99.578125 C 304.132812 106.480469 301.023438 112.074219 298.230469 115.464844 C 302.308594 117.097656 307.71875 120.519531 309.480469 127.421875 C 310.894531 132.972656 309.195312 139.136719 305.042969 143.519531 C 301.585938 147.164062 297.03125 149.109375 292.175781 149.109375 C 290.960938 149.109375 289.726562 148.988281 288.488281 148.742188 C 277.503906 146.550781 264.621094 130.796875 261.589844 126.917969 C 258.367188 126.304688 247.421875 124.601562 238.820312 127.820312 C 230.667969 130.867188 224.835938 138.863281 222.929688 141.765625 C 224.203125 143.453125 225.378906 145.246094 226.445312 147.148438 C 255.511719 144.675781 276.601562 157.117188 289.113281 184.164062 C 289.4375 184.863281 289.457031 185.667969 289.164062 186.378906 C 288.871094 187.09375 288.292969 187.652344 287.570312 187.921875 C 278.992188 191.125 271.085938 192.734375 263.808594 192.734375 C 252.351562 192.734375 242.460938 188.734375 233.945312 180.722656 C 233.738281 186.714844 232.824219 192.894531 231.121094 199.101562 C 228.261719 209.507812 223.421875 219.140625 217.097656 227.027344 L 217.097656 254.386719 C 220.132812 255.019531 225.640625 256.476562 231.535156 259.542969 C 243.210938 265.605469 250.808594 275.097656 253.507812 286.988281 C 259.8125 314.722656 238.554688 356.9375 237.644531 358.71875 C 237.15625 359.679688 236.183594 360.234375 235.175781 360.234375 C 234.753906 360.234375 234.324219 360.136719 233.921875 359.929688 C 232.558594 359.238281 232.015625 357.570312 232.710938 356.207031 C 232.921875 355.789062 253.96875 313.992188 248.109375 288.214844 C 242.46875 263.394531 215.140625 259.601562 213.976562 259.453125 C 212.597656 259.277344 211.558594 258.097656 211.558594 256.707031 L 211.558594 226.042969 C 211.558594 225.398438 211.78125 224.773438 212.195312 224.277344 C 218.335938 216.851562 223.035156 207.636719 225.777344 197.636719 C 233.929688 167.933594 222.988281 138.949219 201.382812 133.019531 C 179.777344 127.089844 155.570312 146.429688 147.417969 176.132812 C 139.269531 205.832031 150.210938 234.820312 171.816406 240.75 C 178.878906 242.6875 186.535156 241.957031 193.953125 238.636719 C 195.34375 238.015625 196.984375 238.636719 197.609375 240.035156 C 198.234375 241.429688 197.609375 243.070312 196.214844 243.691406 C 192.710938 245.257812 189.15625 246.316406 185.605469 246.875 L 185.605469 256.707031 C 185.605469 258.140625 184.515625 259.335938 183.089844 259.464844 C 182.839844 259.488281 157.84375 261.949219 146.269531 275.917969 C 139.738281 283.792969 138.113281 296.828125 137.941406 306.746094 C 141.339844 297.410156 151.398438 292.390625 160.8125 295.09375 C 162.015625 293.980469 163.367188 293.015625 164.859375 292.230469 C 169.304688 289.890625 174.398438 289.421875 179.203125 290.910156 C 184.003906 292.402344 187.9375 295.671875 190.277344 300.121094 L 207.871094 333.554688 L 218.207031 302.234375 C 218.6875 300.78125 220.253906 299.992188 221.707031 300.472656 C 223.15625 300.953125 223.945312 302.519531 223.46875 303.96875 L 211.453125 340.367188 L 219.773438 356.175781 C 220.484375 357.527344 219.964844 359.203125 218.613281 359.914062 C 217.261719 360.628906 215.582031 360.109375 214.871094 358.753906 L 185.375 302.699219 C 183.722656 299.5625 180.949219 297.253906 177.558594 296.199219 C 174.171875 295.148438 170.574219 295.480469 167.4375 297.132812 C 164.296875 298.785156 161.988281 301.558594 160.9375 304.945312 C 159.882812 308.335938 160.214844 311.929688 161.867188 315.070312 L 183.496094 356.175781 C 184.207031 357.527344 183.6875 359.203125 182.335938 359.914062 C 181.925781 360.132812 181.484375 360.234375 181.050781 360.234375 C 180.054688 360.234375 179.09375 359.695312 178.597656 358.753906 L 167.058594 336.828125 L 159.210938 358.410156 C 158.800781 359.535156 157.738281 360.234375 156.609375 360.234375 C 156.292969 360.234375 155.976562 360.179688 155.664062 360.066406 C 154.226562 359.542969 153.484375 357.957031 154.007812 356.519531 L 163.570312 330.203125 L 156.964844 317.648438 C 154.625 313.199219 154.15625 308.105469 155.648438 303.304688 C 156.007812 302.144531 156.472656 301.035156 157.035156 299.984375 C 151.105469 299.355469 145.269531 302.792969 143.144531 308.644531 L 125.050781 358.410156 C 124.644531 359.535156 123.582031 360.234375 122.449219 360.234375 C 122.136719 360.234375 121.816406 360.179688 121.503906 360.066406 C 120.066406 359.542969 119.324219 357.953125 119.847656 356.519531 L 132.988281 320.371094 C 132.429688 315.480469 129.804688 287.097656 142 272.382812 C 152.867188 259.273438 172.976562 255.289062 180.066406 254.261719 L 180.066406 247.34375 C 176.773438 247.371094 173.515625 246.957031 170.347656 246.085938 C 145.800781 239.351562 133.117188 207.3125 142.078125 174.664062 C 143.363281 169.972656 145.03125 165.523438 147.011719 161.355469 C 139.726562 164.402344 132.050781 165.933594 124.007812 165.933594 C 114.960938 165.933594 105.457031 164.003906 95.546875 160.140625 C 94.660156 159.796875 94.011719 159.019531 93.832031 158.082031 C 93.652344 157.148438 93.96875 156.1875 94.664062 155.535156 C 112.109375 139.292969 132.886719 134.789062 156.484375 142.109375 C 155.316406 137.425781 152.71875 129.910156 147.273438 123.875 C 130.644531 136.714844 111.597656 137.113281 90.628906 125.054688 C 89.84375 124.601562 89.332031 123.796875 89.253906 122.894531 C 89.175781 121.992188 89.542969 121.105469 90.238281 120.527344 C 91.027344 119.867188 108.996094 105.183594 131.5 109.289062 C 131.882812 101.652344 133.929688 94.96875 137.636719 89.265625 C 137.511719 89.195312 137.378906 89.128906 137.253906 89.050781 C 134.398438 87.328125 131.445312 84.136719 129.0625 80.496094 C 128.050781 84.726562 126.351562 88.726562 124.246094 91.316406 C 121.226562 95.023438 117.277344 96.503906 113.496094 96.503906 C 111.15625 96.503906 108.882812 95.941406 106.9375 94.984375 C 101.839844 92.484375 97.484375 86.585938 99.246094 79.050781 C 100.003906 75.800781 102.125 72.011719 104.851562 68.621094 C 103.839844 68.699219 102.828125 68.742188 101.832031 68.742188 C 98.5625 68.742188 95.460938 68.300781 93.074219 67.378906 C 85.855469 64.589844 83.433594 57.671875 84.234375 52.050781 C 85.039062 46.433594 89.300781 40.46875 97.011719 39.8125 C 100.339844 39.535156 104.601562 40.382812 108.667969 41.925781 Z M 266.070312 123.671875 C 270.515625 129.363281 281.566406 141.714844 289.570312 143.308594 C 293.867188 144.167969 298.039062 142.851562 301.023438 139.707031 C 303.878906 136.695312 305.0625 132.511719 304.109375 128.789062 C 302.144531 121.078125 292.9375 119.609375 292.546875 119.550781 C 291.441406 119.382812 290.542969 118.570312 290.269531 117.488281 C 289.996094 116.40625 290.398438 115.261719 291.289062 114.59375 C 291.597656 114.359375 298.972656 108.65625 297.003906 100.945312 C 296.054688 97.226562 293.011719 94.121094 289.0625 92.84375 C 284.933594 91.515625 280.640625 92.363281 277.28125 95.171875 C 271.023438 100.40625 267.246094 116.542969 266.070312 123.671875 Z M 229.054688 152.511719 C 231.601562 158.542969 233.222656 165.316406 233.777344 172.519531 C 246.242188 187.160156 261.878906 190.769531 282.765625 183.75 C 271.417969 161.277344 253.789062 151.035156 229.054688 152.511719 Z M 218.832031 63.414062 C 219.542969 65.601562 221.0625 67.378906 223.109375 68.421875 C 225.160156 69.464844 227.488281 69.648438 229.675781 68.9375 C 230.503906 68.667969 231.503906 68.207031 232.5625 67.597656 C 232.988281 67.355469 233.464844 67.230469 233.9375 67.230469 C 234.511719 67.230469 235.082031 67.410156 235.566406 67.761719 C 236.449219 68.402344 236.875 69.5 236.648438 70.566406 C 236.398438 71.761719 236.265625 72.855469 236.265625 73.726562 C 236.265625 78.472656 240.125 82.332031 244.871094 82.332031 C 249.617188 82.332031 253.476562 78.472656 253.476562 73.726562 C 253.476562 72.855469 253.34375 71.765625 253.09375 70.566406 C 252.871094 69.5 253.296875 68.402344 254.175781 67.761719 C 255.058594 67.121094 256.234375 67.058594 257.179688 67.597656 C 258.238281 68.207031 259.238281 68.667969 260.066406 68.941406 C 262.253906 69.648438 264.585938 69.464844 266.632812 68.421875 C 268.679688 67.378906 270.199219 65.601562 270.910156 63.414062 C 271.621094 61.230469 271.4375 58.898438 270.394531 56.851562 C 269.351562 54.804688 267.570312 53.285156 265.386719 52.574219 C 264.558594 52.304688 263.476562 52.09375 262.261719 51.960938 C 261.179688 51.84375 260.265625 51.101562 259.925781 50.0625 C 259.589844 49.027344 259.894531 47.890625 260.699219 47.15625 C 261.605469 46.335938 262.355469 45.53125 262.867188 44.824219 C 264.21875 42.964844 264.765625 40.691406 264.40625 38.421875 C 264.046875 36.152344 262.824219 34.15625 260.964844 32.808594 C 259.105469 31.457031 256.828125 30.910156 254.558594 31.269531 C 252.289062 31.628906 250.296875 32.851562 248.945312 34.710938 C 248.433594 35.414062 247.898438 36.378906 247.398438 37.492188 C 246.949219 38.488281 245.960938 39.125 244.871094 39.125 C 243.78125 39.125 242.792969 38.488281 242.347656 37.492188 C 241.847656 36.378906 241.3125 35.414062 240.800781 34.710938 C 239.449219 32.851562 237.453125 31.628906 235.183594 31.269531 C 232.914062 30.910156 230.640625 31.457031 228.78125 32.808594 C 226.921875 34.15625 225.699219 36.152344 225.339844 38.421875 C 224.980469 40.691406 225.527344 42.964844 226.878906 44.824219 C 227.390625 45.53125 228.136719 46.335938 229.042969 47.15625 C 229.851562 47.886719 230.152344 49.027344 229.816406 50.0625 C 229.480469 51.101562 228.566406 51.84375 227.480469 51.960938 C 226.265625 52.089844 225.1875 52.304688 224.359375 52.574219 C 222.171875 53.28125 220.394531 54.800781 219.351562 56.847656 C 218.304688 58.898438 218.121094 61.230469 218.832031 63.414062 Z M 125.136719 49.441406 C 124.660156 49.441406 124.171875 49.480469 123.683594 49.566406 C 121.457031 49.953125 119.515625 51.183594 118.21875 53.03125 C 116.917969 54.878906 116.414062 57.121094 116.800781 59.347656 C 117.191406 61.570312 118.417969 63.511719 120.265625 64.8125 C 122.113281 66.113281 124.355469 66.613281 126.582031 66.230469 C 128.808594 65.84375 130.75 64.613281 132.050781 62.765625 C 133.347656 60.917969 133.851562 58.671875 133.464844 56.449219 C 132.75 52.34375 129.171875 49.441406 125.136719 49.441406 Z M 124.550781 71.875 C 121.890625 71.769531 119.3125 70.910156 117.082031 69.339844 C 116.082031 68.640625 115.207031 67.816406 114.441406 66.910156 C 110.066406 70.128906 105.636719 76.035156 104.640625 80.308594 C 103.5 85.195312 106.480469 88.589844 109.378906 90.011719 C 112.277344 91.4375 116.785156 91.714844 119.949219 87.820312 C 122.71875 84.417969 124.679688 77.300781 124.550781 71.875 Z M 143.136719 120.066406 C 140.445312 118.035156 137.265625 116.386719 133.5 115.390625 C 117.644531 111.191406 103.535156 118.324219 97.25 122.335938 C 114.398438 130.984375 129.472656 130.234375 143.136719 120.066406 Z M 149.867188 118.46875 C 161.363281 107.246094 165.898438 93.542969 163.667969 76.722656 C 146.167969 83.183594 137.421875 94.320312 136.992188 110.65625 C 142.277344 112.40625 146.5 115.199219 149.867188 118.46875 Z M 151.785156 152.789062 C 152.953125 150.980469 154.183594 149.25 155.472656 147.597656 C 134.9375 141.015625 117.339844 143.953125 101.90625 156.5625 C 120.539062 162.808594 136.898438 161.558594 151.785156 152.789062 Z M 173.675781 131.777344 C 172.292969 122.125 169.1875 114.398438 164.242188 108.320312 C 161.613281 113.476562 158.042969 118.246094 153.539062 122.617188 C 158.28125 128.84375 160.675781 135.828125 161.839844 140.53125 C 165.527344 136.996094 169.511719 134.050781 173.675781 131.777344 Z M 182.117188 89.1875 C 182.242188 102.546875 188.265625 110.691406 200.4375 113.960938 C 200.21875 109.027344 199.34375 103.957031 197.105469 100.378906 C 193.144531 94.042969 186.207031 90.691406 182.117188 89.1875 Z M 180.46875 105.984375 C 178.464844 108.53125 176.265625 110.953125 173.875 113.222656 C 176.214844 117.980469 177.890625 123.359375 178.890625 129.324219 C 180.152344 128.824219 181.425781 128.386719 182.703125 128.015625 C 182.972656 122.460938 183.800781 117.109375 185.167969 112.046875 C 183.292969 110.277344 181.726562 108.257812 180.46875 105.984375 Z M 199.816406 126.992188 C 200.050781 125.15625 200.320312 122.578125 200.4375 119.667969 C 196.453125 118.746094 192.964844 117.394531 189.972656 115.628906 C 189.136719 119.210938 188.585938 122.945312 188.324219 126.796875 C 192.148438 126.257812 196.003906 126.304688 199.816406 126.992188 Z M 204.570312 104.117188 C 205.484375 107.546875 205.882812 111.253906 205.992188 114.792969 C 217.972656 115.023438 226.726562 109.476562 232.621094 97.914062 C 220.996094 94.730469 211.789062 96.777344 204.570312 104.117188 Z M 168.726562 73.207031 C 170.5625 84 169.875 93.851562 166.683594 102.691406 C 168.273438 104.40625 169.722656 106.265625 171.03125 108.257812 C 173.625 105.6875 175.960938 102.925781 178.019531 100.007812 C 176.792969 95.738281 176.34375 90.832031 176.691406 85.289062 C 176.738281 84.484375 177.140625 83.738281 177.785156 83.25 C 178.433594 82.765625 179.257812 82.582031 180.050781 82.757812 C 180.285156 82.8125 182.648438 83.351562 185.855469 84.691406 C 189.457031 74.382812 190.804688 62.367188 189.863281 48.875 C 179.117188 53.101562 172.1875 61.101562 168.726562 73.207031 Z M 138.234375 62.769531 C 136.886719 66.378906 134.078125 69.359375 130.402344 70.855469 C 132.117188 76.007812 136.363281 82.046875 140.117188 84.3125 C 140.425781 84.5 140.742188 84.660156 141.058594 84.808594 C 144.316406 81.15625 148.394531 77.996094 153.292969 75.335938 C 153.101562 74.214844 152.671875 73.121094 151.992188 72.074219 C 149.609375 68.386719 143.441406 64.320312 138.234375 62.769531 Z M 133.8125 46.949219 C 136.414062 49.007812 138.308594 51.980469 138.921875 55.5 C 139.003906 55.964844 139.058594 56.429688 139.089844 56.890625 C 144.523438 56.855469 151.574219 54.679688 154.890625 51.8125 C 158.683594 48.527344 158.269531 44.03125 156.761719 41.175781 C 155.25 38.320312 151.773438 35.445312 146.917969 36.734375 C 142.671875 37.863281 136.898438 42.476562 133.8125 46.949219 Z M 117.390625 46.246094 C 118.984375 45.1875 120.792969 44.449219 122.734375 44.109375 C 124.707031 43.765625 126.65625 43.863281 128.488281 44.320312 C 130.132812 39.144531 130.246094 31.761719 128.539062 27.71875 C 126.589844 23.09375 122.1875 22.101562 119.003906 22.652344 C 115.824219 23.207031 112.011719 25.632812 111.738281 30.640625 C 111.496094 35.023438 114.09375 41.929688 117.390625 46.246094 Z M 97.484375 45.332031 C 92.484375 45.757812 90.175781 49.640625 89.71875 52.835938 C 89.261719 56.035156 90.390625 60.40625 95.070312 62.214844 C 99.160156 63.796875 106.53125 63.460938 111.652344 61.664062 C 111.53125 61.214844 111.425781 60.757812 111.347656 60.296875 C 110.75 56.878906 111.441406 53.441406 113.261719 50.519531 C 108.847656 47.351562 101.859375 44.957031 97.484375 45.332031 Z M 275.136719 230.324219 C 269.40625 230.324219 264.742188 225.664062 264.742188 219.929688 C 264.742188 214.199219 269.40625 209.539062 275.136719 209.539062 C 280.867188 209.539062 285.53125 214.199219 285.53125 219.929688 C 285.53125 225.664062 280.867188 230.324219 275.136719 230.324219 Z M 275.136719 224.789062 C 277.816406 224.789062 279.996094 222.609375 279.996094 219.929688 C 279.996094 217.253906 277.816406 215.074219 275.136719 215.074219 C 272.460938 215.074219 270.28125 217.253906 270.28125 219.929688 C 270.28125 222.609375 272.460938 224.789062 275.136719 224.789062 Z M 192.3125 26.023438 C 192.3125 20.292969 196.976562 15.632812 202.707031 15.632812 C 208.4375 15.632812 213.101562 20.292969 213.101562 26.023438 C 213.101562 31.757812 208.4375 36.417969 202.707031 36.417969 C 196.976562 36.417969 192.3125 31.757812 192.3125 26.023438 Z M 197.851562 26.023438 C 197.851562 28.703125 200.027344 30.882812 202.707031 30.882812 C 205.386719 30.882812 207.5625 28.703125 207.5625 26.023438 C 207.5625 23.347656 205.386719 21.167969 202.707031 21.167969 C 200.027344 21.167969 197.851562 23.347656 197.851562 26.023438 Z M 31.761719 149.035156 C 25.257812 149.035156 19.964844 143.742188 19.964844 137.238281 C 19.964844 130.730469 25.257812 125.4375 31.761719 125.4375 C 38.269531 125.4375 43.5625 130.730469 43.5625 137.238281 C 43.5625 143.742188 38.265625 149.035156 31.761719 149.035156 Z M 31.761719 143.496094 C 35.214844 143.496094 38.023438 140.6875 38.023438 137.238281 C 38.023438 133.785156 35.214844 130.976562 31.761719 130.976562 C 28.308594 130.976562 25.5 133.785156 25.5 137.238281 C 25.5 140.6875 28.308594 143.496094 31.761719 143.496094 Z M 341.496094 135.246094 C 339.96875 135.246094 338.730469 136.484375 338.730469 138.015625 L 338.730469 145.847656 L 330.894531 145.847656 C 329.367188 145.847656 328.125 147.089844 328.125 148.617188 C 328.125 150.144531 329.367188 151.386719 330.894531 151.386719 L 338.726562 151.386719 L 338.726562 159.21875 C 338.726562 160.75 339.96875 161.988281 341.496094 161.988281 C 343.027344 161.988281 344.265625 160.75 344.265625 159.21875 L 344.265625 151.386719 L 352.101562 151.386719 C 353.628906 151.386719 354.871094 150.144531 354.871094 148.617188 C 354.871094 147.085938 353.628906 145.847656 352.101562 145.847656 L 344.265625 145.847656 L 344.265625 138.015625 C 344.265625 136.484375 343.027344 135.246094 341.496094 135.246094 Z M 51.082031 106.527344 C 51.082031 108.058594 52.324219 109.296875 53.851562 109.296875 L 61.6875 109.296875 L 61.6875 117.132812 C 61.6875 118.660156 62.925781 119.898438 64.457031 119.898438 C 65.984375 119.898438 67.222656 118.660156 67.222656 117.132812 L 67.222656 109.296875 L 75.058594 109.296875 C 76.585938 109.296875 77.828125 108.058594 77.828125 106.527344 C 77.828125 105 76.585938 103.757812 75.058594 103.757812 L 67.222656 103.757812 L 67.222656 95.925781 C 67.222656 94.398438 65.984375 93.15625 64.457031 93.15625 C 62.925781 93.15625 61.6875 94.398438 61.6875 95.925781 L 61.6875 103.757812 L 53.851562 103.757812 C 52.324219 103.757812 51.082031 105 51.082031 106.527344 Z M 350.066406 186.355469 C 350.066406 183.265625 347.5625 180.761719 344.46875 180.761719 C 341.378906 180.761719 338.875 183.265625 338.875 186.355469 C 338.875 189.449219 341.378906 191.953125 344.46875 191.953125 C 347.5625 191.953125 350.066406 189.449219 350.066406 186.355469 Z M 288.359375 19.746094 C 288.359375 16.652344 285.855469 14.148438 282.761719 14.148438 C 279.671875 14.148438 277.167969 16.652344 277.167969 19.746094 C 277.167969 22.835938 279.671875 25.339844 282.761719 25.339844 C 285.855469 25.339844 288.359375 22.835938 288.359375 19.746094 Z M 70.050781 56.746094 C 70.050781 53.65625 67.546875 51.152344 64.457031 51.152344 C 61.367188 51.152344 58.859375 53.65625 58.859375 56.746094 C 58.859375 59.835938 61.367188 62.34375 64.457031 62.34375 C 67.546875 62.34375 70.050781 59.835938 70.050781 56.746094 Z M 51.863281 183.757812 C 63.4375 182.15625 69.410156 174.066406 70.121094 159.03125 C 70.191406 157.550781 71.40625 156.390625 72.886719 156.390625 C 74.363281 156.390625 75.582031 157.550781 75.652344 159.03125 C 76.359375 174.066406 82.332031 182.15625 93.910156 183.757812 C 95.277344 183.949219 96.296875 185.117188 96.296875 186.5 C 96.296875 187.882812 95.277344 189.054688 93.910156 189.242188 C 82.332031 190.84375 76.359375 198.933594 75.652344 213.972656 C 75.582031 215.449219 74.363281 216.609375 72.886719 216.609375 C 71.40625 216.609375 70.1875 215.449219 70.121094 213.972656 C 69.410156 198.933594 63.4375 190.84375 51.863281 189.242188 C 50.492188 189.054688 49.472656 187.882812 49.472656 186.5 C 49.472656 185.117188 50.492188 183.949219 51.863281 183.757812 Z M 61.6875 186.5 C 66.824219 189.132812 70.5625 193.421875 72.886719 199.351562 C 75.207031 193.421875 78.945312 189.132812 84.085938 186.5 C 78.945312 183.871094 75.207031 179.578125 72.886719 173.652344 C 70.5625 179.578125 66.824219 183.871094 61.6875 186.5 Z M 338.027344 63.140625 C 338.027344 64.523438 337.007812 65.695312 335.640625 65.886719 C 324.0625 67.488281 318.09375 75.574219 317.382812 90.613281 C 317.3125 92.089844 316.09375 93.25 314.617188 93.25 C 313.136719 93.25 311.921875 92.089844 311.851562 90.613281 C 311.140625 75.574219 305.167969 67.488281 293.59375 65.886719 C 292.222656 65.695312 291.203125 64.527344 291.203125 63.144531 C 291.203125 61.761719 292.226562 60.589844 293.59375 60.402344 C 305.167969 58.800781 311.140625 50.710938 311.851562 35.671875 C 311.921875 34.195312 313.136719 33.035156 314.617188 33.035156 C 316.09375 33.035156 317.3125 34.195312 317.382812 35.671875 C 318.09375 50.710938 324.0625 58.800781 335.640625 60.402344 C 337.007812 60.589844 338.027344 61.761719 338.027344 63.140625 Z M 325.816406 63.140625 C 320.679688 60.511719 316.9375 56.21875 314.617188 50.292969 C 312.292969 56.21875 308.554688 60.511719 303.417969 63.140625 C 308.554688 65.773438 312.292969 70.066406 314.617188 75.992188 C 316.9375 70.066406 320.679688 65.773438 325.816406 63.140625 Z M 325.816406 63.140625 " fill-opacity="1" fill-rule="nonzero"/></g></svg>